<?xml version="1.0" encoding="UTF-8" standalone="no"?>
<!-- Created with Inkscape (http://www.inkscape.org/) -->

<svg
   width="194.83105mm"
   height="57.618752mm"
   viewBox="0 0 194.83105 57.618751"
   version="1.1"
   id="svg37086"
   xml:space="preserve"
   inkscape:export-filename="logo.svg"
   inkscape:export-xdpi="96"
   inkscape:export-ydpi="96"
   xmlns:inkscape="http://www.inkscape.org/namespaces/inkscape"
   xmlns:sodipodi="http://sodipodi.sourceforge.net/DTD/sodipodi-0.dtd"
   xmlns="http://www.w3.org/2000/svg"
   xmlns:svg="http://www.w3.org/2000/svg"><sodipodi:namedview
     id="namedview37088"
     pagecolor="#505050"
     bordercolor="#ffffff"
     borderopacity="1"
     inkscape:showpageshadow="0"
     inkscape:pageopacity="0"
     inkscape:pagecheckerboard="1"
     inkscape:deskcolor="#505050"
     inkscape:document-units="mm"
     showgrid="false" /><defs
     id="defs37083" /><g
     inkscape:label="Layer 1"
     inkscape:groupmode="layer"
     id="layer1"
     transform="translate(6.6064295,-239.38125)"><path
       d="m 0.22835405,294.45053 c 0.23605,-0.54571 0.48895,-1.19783 0.56199,-1.44915 0.10019,-0.34476 4.24564005,-2.85033 4.71586005,-2.85033 0.1767,0 -0.40842,1.6806 -0.78548,2.25607 -0.41254,0.62963 -4.06597005,3.03559 -4.60949005,3.03559 -0.21889,0 -0.18392,-0.29628 0.11712,-0.99218 z M 45.209904,293.29369 c -1.03587,-0.27998 -2.27656,-1.51498 -2.27656,-2.26611 0,-0.88138 0.93604,-0.80687 1.37524,0.10949 0.70903,1.47934 3.12355,1.36607 3.34238,-0.15679 0.12266,-0.85363 -0.57941,-1.51749 -1.97695,-1.86939 -2.45619,-0.61849 -3.30592,-2.71246 -1.66203,-4.0957 1.23459,-1.03883 2.91938,-0.96686 4.03494,0.17238 0.8329,0.85058 0.83466,0.8581 0.22241,0.94731 -0.33942,0.0495 -0.82504,-0.0982 -1.07916,-0.32819 -0.68791,-0.62256 -2.02846,-0.53477 -2.51853,0.16489 -0.58538,0.83574 -0.10232,1.42153 1.81319,2.1988 1.94964,0.7911 2.27422,1.11238 2.45036,2.42564 0.11326,0.84442 0.0198,1.18679 -0.48332,1.77004 -0.71341,0.82706 -2.12243,1.23023 -3.24197,0.92763 z m -22.52846,-0.46054 c -4.22836,-2.57855 -2.65021,-8.50294 2.26503,-8.50294 1.73981,0 2.93485,0.6948 3.83401,2.22909 0.5854,0.99894 0.65911,1.42536 0.65911,3.81344 0,2.51233 -0.0347,2.68872 -0.52916,2.68872 -0.35642,0 -0.52917,-0.17639 -0.52917,-0.54033 0,-0.52369 -0.0353,-0.51961 -1.14773,0.13229 -1.4174,0.83066 -3.35896,0.90731 -4.55209,0.17973 z m 3.76722,-1.08296 c 1.68394,-1.02677 2.22174,-2.93587 1.31887,-4.68183 -0.47319,-0.91506 -1.85043,-1.67981 -3.02515,-1.67981 -0.94456,0 -2.44837,0.96393 -2.9018,1.86002 -1.48134,2.92751 1.85091,6.18278 4.60808,4.50162 z m 8.93278,1.08296 c -2.84148,-1.73278 -3.29289,-4.7711 -1.05997,-7.13438 1.09523,-1.15919 1.21043,-1.21163 2.89782,-1.31908 1.56706,-0.0998 1.87369,-0.0348 2.833,0.6 1.08057,0.71508 2.29147,2.77487 1.95313,3.32232 -0.0944,0.15279 -1.75036,0.26154 -3.98249,0.26154 h -3.82084 v 0.77345 c 0,1.61317 2.36653,3.25739 4.07222,2.8293 0.37432,-0.094 1.08543,-0.52628 1.58026,-0.96073 1.41242,-1.24013 2.37097,-0.91088 1.28695,0.44207 -1.29988,1.62231 -4.09906,2.19842 -5.76008,1.18551 z m 4.74926,-6.14878 c -0.67773,-0.74888 -1.78413,-1.29582 -2.62132,-1.29582 -0.83718,0 -1.94358,0.54694 -2.62132,1.29582 l -0.5034,0.55626 h 3.12472 3.12473 z m 30.31518,6.15177 c -4.05244,-2.15347 -2.44927,-8.65597 2.11712,-8.58708 3.16506,0.0477 4.76617,2.20531 4.76617,6.42266 0,2.19305 -0.0425,2.38974 -0.51601,2.38974 -0.28382,0 -0.6216,-0.18865 -0.75063,-0.4192 -0.20938,-0.37415 -0.33169,-0.36002 -1.13762,0.13128 -1.15861,0.70633 -3.21359,0.73507 -4.47903,0.0626 z m 3.54517,-0.93538 c 0.48302,-0.2018 1.14835,-0.74631 1.47851,-1.20996 0.88468,-1.24243 0.65973,-3.26544 -0.47594,-4.28017 -1.13482,-1.01396 -2.54363,-1.24089 -3.7159,-0.59857 -2.68142,1.46924 -2.68941,4.62857 -0.0152,5.99221 1.09613,0.55896 1.58069,0.57608 2.72848,0.0965 z m 44.978016,1.04519 c -0.45415,-0.19765 -1.16853,-0.80881 -1.5875,-1.35811 -0.66554,-0.87257 -0.76177,-1.22447 -0.76177,-2.78585 0,-1.99491 0.41772,-2.81205 1.98169,-3.87646 0.65466,-0.44556 1.25435,-0.59532 2.38394,-0.59532 2.22559,0 4.00192,1.36324 4.39564,3.37344 l 0.16842,0.8599 h -4.00182 c -3.97395,0 -4.00182,0.004 -4.00084,0.59531 0.002,1.41528 1.86594,3.10885 3.42094,3.10885 0.90136,0 2.33068,-0.70106 2.6515,-1.3005 0.29363,-0.54867 1.59949,-0.79955 1.59949,-0.30729 0,0.42743 -1.35816,1.87701 -2.13504,2.27875 -0.93048,0.48117 -3.01734,0.48488 -4.11465,0.007 z m 4.92677,-5.95189 c 0,-0.13562 -0.38695,-0.52257 -0.85989,-0.85989 -1.13174,-0.80722 -3.03232,-0.83905 -4.06496,-0.0681 -1.38751,1.03595 -1.15239,1.17454 1.99239,1.17454 1.63574,0 2.93246,-0.10904 2.93246,-0.24657 z m 3.73509,5.90053 c -0.51106,-0.35795 -1.35384,-1.81348 -1.35384,-2.33818 0,-0.0774 0.28377,-0.14078 0.6306,-0.14078 0.39681,0 0.67929,0.18619 0.76194,0.50223 0.36464,1.39438 2.83489,1.70384 3.41622,0.42794 0.43655,-0.95811 -0.0804,-1.5231 -2.06449,-2.25624 -1.59036,-0.58764 -1.84111,-0.77623 -2.16556,-1.62869 -0.30926,-0.81254 -0.31075,-1.08233 -0.01,-1.71664 0.76501,-1.61068 3.28174,-1.98882 4.58209,-0.68848 0.80427,0.80428 0.83251,1.02222 0.15539,1.19928 -0.30558,0.0799 -0.69784,-0.0686 -0.96704,-0.36602 -0.91025,-1.00582 -2.88565,-0.39725 -2.71113,0.83521 0.0731,0.5162 0.42661,0.77835 1.77486,1.31619 1.99004,0.79391 2.68523,1.53951 2.67362,2.86756 -0.009,1.05754 -0.34946,1.64078 -1.23096,2.11029 -0.838,0.4463 -2.77644,0.37766 -3.4922,-0.12367 z m 12.00762,-0.0635 c -2.3572,-1.46399 -3.09586,-3.69131 -1.98513,-5.98577 0.70491,-1.45614 1.90884,-2.30815 3.47406,-2.45857 1.69036,-0.1624 2.42016,0.0557 3.5727,1.06762 1.37177,1.20444 1.68524,2.1503 1.68524,5.08506 0,2.51378 -0.002,2.52203 -0.66146,2.52203 -0.4817,0 -0.66146,-0.14163 -0.66146,-0.5212 0,-0.49429 -0.0497,-0.48747 -0.96295,0.13229 -1.21192,0.82243 -3.27405,0.89572 -4.461,0.15854 z m 4.09484,-1.30958 c 0.91698,-0.68046 1.3206,-1.56239 1.32521,-2.89571 0.003,-0.91884 -0.16428,-1.31188 -0.9018,-2.11666 -0.84129,-0.918 -1.0121,-0.9883 -2.40158,-0.9883 -1.38948,0 -1.56029,0.0703 -2.40158,0.9883 -0.77247,0.84291 -0.90571,1.17824 -0.90571,2.27943 0,2.81149 3.05253,4.38987 5.28546,2.73294 z m 19.43995,1.44693 c -3.22958,-1.46492 -3.30342,-6.59472 -0.11864,-8.24164 1.19287,-0.61685 3.45056,-0.51441 4.5181,0.20502 1.75535,1.18293 2.09595,2.03743 2.09595,5.25836 0,2.69489 -0.0325,2.87128 -0.52917,2.87128 -0.35538,0 -0.52916,-0.17639 -0.52916,-0.53707 0,-0.5288 -0.0122,-0.52803 -0.79301,0.0492 -0.98292,0.72668 -3.45002,0.93644 -4.64407,0.39484 z m 3.45541,-1.08167 c 1.10921,-0.46347 1.97969,-1.80835 1.97969,-3.05864 0,-1.79194 -1.61069,-3.43958 -3.36245,-3.43958 -1.70655,0 -3.51474,1.76953 -3.51474,3.43958 0,1.03926 0.87472,2.42321 1.8684,2.95611 1.08683,0.58288 1.82003,0.60769 3.0291,0.10253 z M 13.035434,287.24063 v -5.82083 h 2.50109 c 1.3756,0 2.81328,0.14224 3.19484,0.31609 0.98019,0.44659 1.44782,1.52514 1.44782,3.33926 0,2.58675 -1.17395,3.48363 -4.56407,3.48691 l -1.52135,0.003 v 2.24896 c 0,2.07256 -0.0415,2.24896 -0.52917,2.24896 -0.51313,0 -0.52916,-0.1764 -0.52916,-5.82084 z m 5.46812,-0.68157 c 0.59189,-0.5919 0.66339,-0.84293 0.54337,-1.9078 -0.19604,-1.73919 -0.82113,-2.17313 -3.13039,-2.17313 h -1.82277 v 2.38125 2.38125 h 1.86411 c 1.65028,0 1.94229,-0.0782 2.54568,-0.68157 z m 12.25896,0.68157 c 0,-5.64444 0.016,-5.82083 0.52917,-5.82083 0.51313,0 0.52916,0.17639 0.52916,5.82083 0,5.64444 -0.016,5.82083 -0.52916,5.82083 -0.51313,0 -0.52917,-0.17639 -0.52917,-5.82083 z m 19.84375,2.27981 c 0,-3.31849 -0.0332,-3.5497 -0.52917,-3.67938 -0.3166,-0.0828 -0.52916,-0.36092 -0.52916,-0.69233 0,-0.37754 0.1685,-0.55393 0.52916,-0.55393 0.4693,0 0.52917,-0.1764 0.52917,-1.55919 0,-1.09355 0.1108,-1.60171 0.37101,-1.70157 0.57565,-0.2209 0.68732,0.0556 0.68732,1.70215 v 1.52818 l 1.12448,0.0814 c 0.92097,0.0666 1.12448,0.17714 1.12448,0.61052 0,0.43339 -0.20351,0.54391 -1.12448,0.61053 l -1.12448,0.0814 v 3.55666 c 0,3.38027 -0.0263,3.55666 -0.52916,3.55666 -0.50281,0 -0.52917,-0.17639 -0.52917,-3.54102 z m 4.23333,-0.69231 v -4.23333 h 0.66146 0.66146 v 4.23333 4.23333 h -0.66146 -0.66146 z m 2.38125,0 v -4.23333 h 0.66146 c 0.3638,0 0.66146,0.12181 0.66146,0.27069 0,0.14886 0.29908,0.0747 0.66462,-0.16481 0.49135,-0.32194 1.05475,-0.40312 2.16111,-0.31136 2.60599,0.21611 3.52014,1.83142 3.52279,6.22475 0.002,2.43456 -0.002,2.44739 -0.65998,2.44739 h -0.66146 v -2.98384 c 0,-3.29575 -0.1966,-3.84836 -1.57182,-4.41801 -0.99121,-0.41055 -1.98236,-0.18052 -2.81659,0.65371 -0.60142,0.60142 -0.63867,0.81687 -0.63867,3.6934 v 3.05474 h -0.66146 -0.66146 z m 8.73125,0 c 0,-4.05694 0.022,-4.23333 0.52917,-4.23333 0.50712,0 0.52917,0.17639 0.52917,4.23333 0,4.05694 -0.022,4.23333 -0.52917,4.23333 -0.50712,0 -0.52917,-0.17639 -0.52917,-4.23333 z m 12.67717,1.38906 c -0.0126,-1.56435 -0.0423,-3.43958 -0.0661,-4.16719 -0.0388,-1.18599 0.0183,-1.33167 0.552,-1.40747 0.32742,-0.0465 0.59531,0.0456 0.59531,0.20455 0,0.1702 0.27331,0.11001 0.66462,-0.1464 0.48822,-0.31988 1.05485,-0.40312 2.13486,-0.31356 1.21125,0.10047 1.6185,0.27006 2.31194,0.9629 l 0.84171,0.84095 0.0872,3.43525 c 0.0845,3.33057 0.0704,3.43524 -0.46303,3.43524 -0.52467,0 -0.55019,-0.13837 -0.55019,-2.98384 0,-3.29575 -0.1966,-3.84836 -1.57182,-4.41801 -0.99121,-0.41055 -1.98236,-0.18052 -2.81659,0.65371 -0.60142,0.60142 -0.63867,0.81687 -0.63867,3.6934 0,2.87835 -0.0306,3.05474 -0.52917,3.05474 -0.49493,0 -0.53064,-0.18399 -0.552,-2.84427 z m 29.920746,-3.00064 v -5.84491 l 2.77271,0.0902 c 2.60816,0.0849 2.81544,0.13298 3.49274,0.81087 0.5975,0.59799 0.73817,1.00547 0.82661,2.39446 0.0945,1.48431 0.0317,1.76284 -0.55475,2.4598 l -0.66134,0.78595 0.63389,0.73694 c 0.53718,0.6245 0.63388,1.01719 0.63388,2.57426 0,1.66093 -0.0508,1.83732 -0.52917,1.83732 -0.47428,0 -0.52916,-0.17639 -0.52916,-1.70058 0,-1.52204 -0.0732,-1.75818 -0.69714,-2.24896 -0.55152,-0.43384 -1.07657,-0.54837 -2.51354,-0.54837 h -1.8164 v 2.24895 c 0,2.07257 -0.0415,2.24896 -0.52916,2.24896 -0.5132,0 -0.52917,-0.17639 -0.52917,-5.84491 z m 5.43597,-0.62534 c 0.47786,-0.47786 0.64944,-0.93541 0.64944,-1.73183 0,-1.82846 -1.54034,-2.83308 -3.98653,-2.60006 l -0.90825,0.0865 -0.0761,2.44739 -0.0761,2.4474 h 1.87403 c 1.63694,0 1.9562,-0.0822 2.52346,-0.64942 z m 19.96403,2.91679 c 0,-3.01498 -0.0636,-3.59029 -0.39688,-3.59029 -0.24694,0 -0.39688,-0.24987 -0.39688,-0.66146 0,-0.41158 0.14994,-0.66145 0.39688,-0.66145 0.30869,0 0.39688,-0.35277 0.39688,-1.5875 0,-1.51694 0.0294,-1.5875 0.66146,-1.5875 0.63206,0 0.66146,0.0706 0.66146,1.5875 v 1.5875 h 1.05833 c 0.9525,0 1.05833,0.0661 1.05833,0.66145 0,0.59452 -0.10634,0.66146 -1.05065,0.66146 h -1.05065 l -0.0738,3.50573 c -0.0718,3.40847 -0.0903,3.50809 -0.66914,3.59029 -0.59227,0.0841 -0.59531,0.0662 -0.59531,-3.50573 z m 15.50566,2.95378 c -1.61036,-0.92321 -2.01192,-1.95127 -2.01192,-5.15088 v -2.7161 h 0.66146 0.66146 v 2.79847 c 0,2.74029 0.0161,2.81456 0.77339,3.57187 0.57259,0.57259 1.02442,0.77341 1.74015,0.77341 0.71573,0 1.16756,-0.20082 1.74014,-0.77341 0.75732,-0.75731 0.7734,-0.83158 0.7734,-3.57187 0,-2.62208 0.0333,-2.79847 0.52917,-2.79847 0.49737,0 0.52916,0.17639 0.52916,2.93573 0,3.36333 -0.26842,4.0799 -1.86427,4.97682 -1.25957,0.70792 -2.23994,0.69527 -3.53214,-0.0456 z m 6.71933,-3.61524 c 0,-3.99526 0.0302,-4.25174 0.50086,-4.25174 0.53956,0 0.93086,0.66823 0.65379,1.11654 -0.19151,0.30985 -0.16599,0.30041 1.52925,-0.56642 0.67578,-0.34557 1.41992,-0.55491 1.65365,-0.46522 0.56676,0.21749 0.54219,0.95237 -0.0381,1.13882 -2.51158,0.80709 -2.80234,1.25479 -2.97656,4.58327 -0.12421,2.37294 -0.16867,2.53254 -0.72761,2.61194 l -0.59531,0.0845 z m 14.81667,-0.0185 c 0,-4.05693 0.022,-4.23333 0.52916,-4.23333 0.30484,0 0.52917,0.1764 0.52917,0.41608 0,0.34491 0.11924,0.32229 0.69714,-0.13229 0.848,-0.66704 2.67572,-0.73329 3.82561,-0.13867 1.48822,0.7696 1.82515,1.73131 1.82626,5.21269 0.001,2.9328 -0.029,3.10886 -0.52818,3.10886 -0.49738,0 -0.52916,-0.1764 -0.52916,-2.93688 v -2.93687 l -0.89959,-0.89959 c -1.31458,-1.31458 -2.88566,-1.11813 -3.8618,0.48289 -0.43707,0.71687 -0.52847,1.33483 -0.52929,3.57847 -0.001,2.53526 -0.0355,2.71198 -0.53016,2.71198 -0.50712,0 -0.52916,-0.1764 -0.52916,-4.23334 z m 9.26041,0.66146 c 0,-2.9986 -0.0637,-3.57187 -0.39687,-3.57187 -0.24695,0 -0.39688,-0.24988 -0.39688,-0.66146 0,-0.41159 0.14993,-0.66146 0.39688,-0.66146 0.30868,0 0.39687,-0.35277 0.39687,-1.5875 0,-1.4111 0.0588,-1.5875 0.52917,-1.5875 0.47037,0 0.52917,0.1764 0.52917,1.5875 v 1.5875 h 1.20902 c 1.10247,0 1.20158,0.0525 1.12448,0.59531 -0.0703,0.49488 -0.27425,0.60905 -1.20903,0.67667 l -1.12447,0.0814 v 3.55667 c 0,3.38026 -0.0262,3.55666 -0.52917,3.55666 -0.50303,0 -0.52917,-0.1764 -0.52917,-3.57188 z m -84.402066,1.53988 c -5.54949,-0.57071 -7.96553,-2.44819 -7.56256,-5.87682 0.36066,-3.06864 2.8175,-6.5549 6.61543,-9.38726 1.22323,-0.91226 1.30452,-1.04735 1.34639,-2.2375 0.053,-1.50747 1.30841,-4.04329 2.64112,-5.33501 0.4871,-0.47212 2.345446,-1.82663 4.129656,-3.01 1.78422,-1.18341 3.22507,-2.27068 3.2019,-2.41621 -0.0232,-0.14552 -0.46134,-0.30154 -0.9737,-0.34671 -1.07499,-0.0947 -1.06823,-0.0706 -0.50164,-1.78898 0.70084,-2.12547 1.05334,-2.3482 3.88041,-2.45178 2.16713,-0.0794 2.49823,-0.0301 2.91887,0.43471 0.42699,0.4718 0.43722,0.61312 0.10229,1.41248 -0.20468,0.4885 -0.69378,1.26962 -1.08687,1.73579 -0.67946,0.80577 -0.69497,0.88575 -0.31447,1.62158 0.72586,1.40364 2.58885,1.53369 4.43674,0.3097 1.08844,-0.72097 1.25006,-0.97097 1.77866,-2.75156 2.12472,-7.15714 2.42533,-14.22366 0.69085,-16.2401 l -0.60404,-0.70226 -0.56107,0.91691 c -0.30859,0.5043 -0.82785,1.6015 -1.15391,2.43825 -0.52583,1.3494 -0.9924,1.95418 -0.9924,1.28637 0,-0.85256 1.49388,-5.13942 2.1458,-6.15764 1.24869,-1.95033 1.85588,-1.91813 2.96676,0.15721 0.52232,0.97578 0.57356,1.44582 0.55002,5.04478 -0.02,3.05835 -0.14822,4.43913 -0.55893,6.01928 -0.29313,1.12778 -0.48186,2.05052 -0.4194,2.05052 0.0624,0 0.49256,-0.28792 0.9558,-0.63982 1.71214,-1.30061 5.50645,-3.0961 6.36606,-3.01247 0.73603,0.0716 0.82255,0.16857 0.79282,0.8884 -0.0183,0.44436 -0.53192,1.81358 -1.14125,3.0427 -0.86428,1.74334 -1.60109,2.73278 -3.35095,4.49985 -2.51815,2.54291 -2.57758,2.82189 -0.79962,3.75346 1.57128,0.82331 3.85644,0.79539 5.58597,-0.0682 1.66064,-0.82924 4.24848,-3.90777 4.44585,-5.28889 0.21187,-1.48257 1.15786,-3.72714 2.33313,-5.53583 0.99846,-1.53659 1.07917,-1.79072 0.96286,-3.03162 -0.0698,-0.74493 -0.27894,-1.71162 -0.46471,-2.14818 l -0.33777,-0.79375 -0.20726,0.79375 c -0.11399,0.43656 -0.34312,1.47632 -0.50918,2.31058 -0.16606,0.83429 -0.43207,1.59729 -0.59114,1.69561 -0.43943,0.27157 -0.0559,-4.1343 0.574,-6.59352 0.83601,-3.26401 0.88657,-3.28584 2.03058,-0.87715 0.82415,1.73522 0.9905,2.36662 0.97594,3.70417 -0.0198,1.81866 -0.99295,5.01801 -2.21433,7.2799 -0.42594,0.7888 -0.72699,1.48162 -0.66902,1.53959 0.058,0.058 0.6826,0.18737 1.38805,0.28755 1.13387,0.16102 1.29204,0.26315 1.36372,0.88055 0.0446,0.38413 -0.0982,1.12739 -0.31723,1.65169 -0.36335,0.86966 -0.49129,0.95332 -1.4577,0.95332 -1.6071,0 -2.27855,0.4431 -3.56588,2.35318 -1.5095,2.2397 -2.6274,3.30145 -4.21387,4.00217 -1.51534,0.66931 -3.75955,0.74059 -4.89128,0.15533 -1.03886,-0.53721 -2.08456,-1.80792 -2.30183,-2.79714 -0.0963,-0.43837 -0.26904,-0.85514 -0.3839,-0.92612 -0.11486,-0.071 -0.76054,0.30077 -1.43485,0.8261 -0.9403,0.73258 -1.22601,1.12829 -1.22601,1.69794 0,0.96671 -0.46801,1.25444 -0.57731,0.35494 l -0.0841,-0.6926 -0.66146,0.51459 c -1.10716,0.86135 -3.04954,1.4732 -4.06942,1.28188 -1.01572,-0.19056 -2.43031,-1.59036 -2.7023,-2.67407 -0.0906,-0.36115 -0.22885,-0.65661 -0.30712,-0.65661 -0.0783,0 -0.69044,0.51215 -1.36038,1.13813 -0.66993,0.62598 -2.41664,1.87428 -3.88158,2.77402 -2.933896,1.80208 -4.877106,3.44242 -4.877106,4.1171 0,0.77052 0.59599,0.47419 2.03555,-1.01208 1.492466,-1.54088 1.572606,-1.48958 1.107276,0.70898 -0.56369,2.66321 -1.045936,3.24437 -5.391776,6.49771 -4.51947,3.38328 -5.97579,5.10093 -6.03289,7.11542 -0.0778,2.74426 4.89822,4.31419 12.581316,3.96938 5.28276,-0.23706 4.67207,0.55788 -0.87756,1.14234 -2.468166,0.25993 -3.471616,0.27744 -5.273996,0.0921 z m 23.415616,-30.59981 c 2.52422,-1.67629 4.91558,-3.68641 5.32492,-4.47601 0.3583,-0.69114 0.34703,-0.72755 -0.2249,-0.72678 -0.80136,0 -3.87745,1.56821 -5.48581,2.79474 -1.01061,0.77073 -1.35222,1.23042 -1.57666,2.12175 -0.5091,2.02181 -0.62541,2.00485 1.96245,0.2863 z M 0.46772405,288.99989 c -1.89119995,-0.8791 -2.51353995,-2.27732 -2.51353995,-5.64719 0,-4.40536 0.88053,-6.58103 5.35912,-13.24165 2.89679,-4.30816 4.40535,-7.28507 4.8706,-9.61134 0.0853,-0.42658 0.25935,-0.77573 0.38668,-0.77573 0.30211,0 0.30264,-0.006 -0.19821,2.0623 -0.64952,2.6816 -2.46278,6.31071 -4.9728,9.9527 -4.81495,6.98635 -5.74387,10.66458 -3.30837005,13.10007 0.92532005,0.92533 2.60213005,1.45923 3.91420005,1.2463 2.47465,-0.40156 8.2362799,-5.94352 8.2362799,-7.92226 0,-0.48549 -0.21548,-0.73211 -0.8599,-0.9842 -2.9676799,-1.16089 -3.2632199,-1.60703 -3.0379399,-4.58581 0.15908,-2.10339 0.69324,-3.65303 1.59536,-4.62823 0.3204799,-0.34642 1.8568599,-1.51389 3.4141899,-2.59432 1.55733,-1.08045 3.29874,-2.49528 3.86981,-3.14404 0.57107,-0.64878 1.1126,-1.17959 1.20339,-1.17959 0.37416,0 0.11942,1.07431 -0.58668,2.47414 -0.41347,0.81971 -0.69128,1.55086 -0.61736,1.62478 0.3002,0.3002 1.83509,0.0914 2.90815,-0.39555 0.62818,-0.28506 1.9081,-1.25383 2.84427,-2.15278 1.96775,-1.88955 2.22884,-1.60552 0.91172,0.99182 -0.43472,0.85725 -0.7919,1.5884 -0.79375,1.62478 -0.002,0.0364 0.42075,0.0661 0.93908,0.0661 1.26781,0 3.60652,-1.14212 4.55821,-2.22604 0.62308,-0.70964 0.93576,-1.57255 1.602,-4.42108 1.38485,-5.92098 1.44036,-6.31098 1.29725,-9.11493 -0.14857,-2.91097 -0.86426,-5.14003 -1.65033,-5.14003 -0.27109,0 -0.81432,0.81357 -1.50667,2.25647 -0.5955,1.24106 -1.12637,2.21282 -1.17971,2.15948 -0.17914,-0.17913 0.39415,-2.70013 0.9548,-4.1986 0.59587,-1.5926 1.95329,-3.65693 2.40465,-3.65693 0.48702,0 1.55963,1.36546 1.84681,2.351 0.61911,2.12477 0.59273,5.56033 -0.0698,9.09222 -0.34806,1.8554 -0.60779,3.37344 -0.57719,3.37344 0.0306,0 0.69269,-0.43246 1.4713,-0.96102 1.94659,-1.32143 4.95864,-2.74314 5.81165,-2.74314 0.97135,0 1.10845,0.57623 0.51113,2.14823 -0.92278,2.42858 -2.58781,4.88082 -4.54323,6.69123 -1.7848,1.65246 -1.8798,1.7971 -1.59336,2.42575 0.34534,0.75796 1.46587,1.30128 3.2247,1.56364 0.89418,0.1334 1.59918,0.0394 2.75636,-0.36727 1.84608,-0.64884 2.641,-1.33503 3.31703,-2.86329 0.58389,-1.31998 0.90412,-1.46651 0.73847,-0.33788 -0.0641,0.43656 0.002,0.79375 0.14762,0.79375 0.50873,0 2.50447,-2.34421 2.68135,-3.14952 0.24305,-1.10662 0.66705,-1.30093 0.66705,-0.30567 0,0.44513 0.10283,0.80936 0.22851,0.80936 0.43698,0 1.58102,-1.35636 2.13112,-2.52664 0.30442,-0.64765 0.6286,-1.17753 0.7204,-1.17753 0.29369,0 -0.13046,2.25677 -0.7206,3.83405 -0.3142,0.83976 -0.98737,1.98742 -1.49593,2.55035 -0.9019,0.99827 -0.91379,1.04005 -0.48337,1.69698 1.29255,1.97268 4.57556,1.42399 7.42424,-1.24081 2.17776,-2.03719 2.30756,-2.50521 2.21781,-7.99725 -0.0601,-3.67681 -0.001,-4.42912 0.42483,-5.43697 0.41531,-0.98229 0.52646,-1.08826 0.69372,-0.66146 0.10954,0.27953 0.20928,3.60386 0.22166,7.3874 0.0256,7.82315 0.0921,8.15243 1.67315,8.28413 1.40078,0.11669 2.13765,-0.47746 2.20447,-1.77755 0.0617,-1.20123 1.40712,-3.88575 2.44234,-4.87336 0.91862,-0.87638 2.13243,-1.49542 2.58878,-1.32032 0.19884,0.0763 0.50053,0.60267 0.67042,1.1697 0.40478,1.35104 0.043,2.56765 -1.41124,4.74535 -1.01115,1.51419 -1.06415,1.67667 -0.64665,1.98197 1.241,0.90744 4.37662,0.64982 6.38405,-0.52451 1.49093,-0.87217 3.90281,-3.483 4.79098,-5.18613 1.02828,-1.97186 1.0229,-4.21835 -0.0182,-7.59251 -0.41533,-1.34606 -0.84176,-2.44739 -0.94762,-2.44739 -0.10587,0 -0.46809,1.43047 -0.80496,3.17884 -0.62281,3.23249 -0.86206,3.96229 -1.19111,3.63323 -0.319,-0.31898 1.29744,-9.04587 2.0347,-10.985 0.20881,-0.5492 0.30832,-0.59539 0.65785,-0.3053 1.43163,1.18816 2.36352,5.12585 2.12386,8.97445 -0.32607,5.23616 -1.39811,8.40632 -3.76988,11.14801 -2.45362,2.83633 -4.40592,3.93494 -6.99264,3.93494 -1.52636,0 -2.43351,-0.40085 -3.53925,-1.56388 -0.42741,-0.44955 -0.88104,-0.81737 -1.00806,-0.81737 -0.12703,0 -0.77676,0.41674 -1.44385,0.92612 -2.15962,1.64899 -4.11724,1.74683 -4.80374,0.24013 -0.15725,-0.34512 -0.36518,-1.40131 -0.46208,-2.34706 l -0.17617,-1.71961 -0.72651,1.14559 c -2.17194,3.4248 -5.51797,4.9879 -7.96663,3.72166 -0.92885,-0.48033 -1.79829,-2.17517 -1.82335,-3.55433 l -0.0168,-0.92605 -0.84888,0.95729 c -0.8738,0.98539 -2.4605,2.0827 -3.01412,2.08444 -0.17223,0 -0.8866,0.35674 -1.5875,0.79156 -3.38455,2.0997 -6.94638,1.21647 -8.18619,-2.02994 -0.23985,-0.62804 -0.48918,-1.14189 -0.55406,-1.14189 -0.45974,0 -2.45667,2.01256 -2.46002,2.47928 -0.002,0.30988 -0.11947,0.74202 -0.26054,0.96031 -0.20009,0.30964 -0.25737,0.23801 -0.26053,-0.32573 l -0.004,-0.72261 -1.67562,0.92104 c -2.11085,1.16028 -3.76358,1.25984 -4.70341,0.28337 l -0.61374,-0.63767 -1.19786,0.63767 c -1.58486,0.84368 -3.15964,0.84783 -4.15834,0.0109 l -0.7479,-0.62674 -2.24896,1.4297 c -3.02798,1.9249 -4.2333399,2.92626 -4.2333399,3.51687 0,0.6106 1.1102799,1.56813 2.5934299,2.23663 0.74212,0.33448 1.17658,0.72276 1.28295,1.14659 0.41492,1.65317 -0.55529,4.95353 -2.32734,7.91695 -1.2700199,2.12383 -4.1270699,4.99779 -5.6288199,5.66208 -1.61628,0.71496 -3.74539,0.90125 -4.78376005,0.41857 z M 65.097594,261.57559 c 0.95457,-0.582 1.54012,-1.59152 1.29446,-2.23171 -0.23101,-0.60203 -0.92786,-0.50802 -1.93634,0.26117 -0.8593,0.65543 -1.05533,1.21883 -0.72427,2.08156 0.20559,0.53575 0.32065,0.52641 1.36615,-0.11102 z m -32.21445,-1.48574 c 3.26915,-2.30513 4.64116,-3.46967 4.99008,-4.23548 0.25482,-0.55925 0.22147,-0.62801 -0.30336,-0.62571 -0.86171,0.004 -3.21273,1.16324 -5.12375,2.52693 -1.46409,1.04473 -1.71708,1.35641 -2.07251,2.55325 -0.22266,0.74981 -0.40484,1.40118 -0.40484,1.44754 0,0.29252 0.71996,-0.11917 2.91438,-1.66653 z m 22.0645,22.28823 c -0.21415,-0.55806 0.0864,-0.95826 0.71972,-0.95826 0.39971,0 0.51093,0.14732 0.4474,0.59261 -0.0987,0.69162 -0.9408,0.95544 -1.16712,0.36565 z m 11.18084,0.18825 c -0.38765,-0.38764 -0.16449,-1.14651 0.33716,-1.14651 0.67537,0 0.93533,0.45545 0.53517,0.93763 -0.3493,0.42087 -0.60025,0.48096 -0.87233,0.20888 z m -46.47847,-7.33898 c 0,-0.0757 0.2383,-0.76724 0.52955,-1.53667 0.50482,-1.33369 0.63022,-1.45164 2.68629,-2.52712 1.18621,-0.62045 2.209,-1.07585 2.27286,-1.01198 0.28325,0.28324 -0.66755,2.14768 -1.38766,2.72111 -0.91886,0.73168 -4.10104,2.55876 -4.10104,2.35466 z m 62.17708,-4.12462 c 0,-0.14459 0.8632,-1.23203 1.91823,-2.41652 4.03229,-4.52715 4.67906,-5.57225 4.89034,-7.90231 0.0744,-0.82055 10e-4,-2.11621 -0.16224,-2.87927 -0.36035,-1.68021 -2.67209,-7.70565 -2.95638,-7.70565 -0.11158,0 -0.27876,1.0418 -0.37153,2.31511 -0.2468,3.38769 -0.4182,4.34017 -0.7605,4.22608 -0.53655,-0.17886 -0.74347,-2.35744 -0.58358,-6.14431 0.15396,-3.64641 0.79861,-8.2182 1.19322,-8.46207 0.27474,-0.16981 2.47677,4.62923 3.29551,7.18217 1.72754,5.38668 2.20767,8.74525 1.78268,12.46987 -0.55226,4.83986 -1.65087,6.58437 -5.33677,8.4742 -2.17142,1.11332 -2.90898,1.327 -2.90898,0.8427 z m 58.208326,0.046 c 0,-0.25728 1.34103,-1.87619 3.61236,-4.36086 2.93691,-3.21281 3.71593,-5.20287 3.22725,-8.24426 -0.3071,-1.91132 -2.83899,-8.48466 -3.14657,-8.16917 -0.11874,0.12182 -0.32502,1.56237 -0.45839,3.20125 -0.24891,3.05874 -0.42259,3.64389 -0.88021,2.96566 -0.426,-0.63132 -0.11733,-11.21185 0.37686,-12.91812 0.22563,-0.77904 0.46723,-1.47344 0.53689,-1.54311 0.14657,-0.14655 1.63254,2.94897 2.64621,5.51249 0.38259,0.96758 1.07142,3.17024 1.53072,4.89479 0.73824,2.77191 0.83774,3.56518 0.85789,6.83975 0.0392,6.37148 -1.18568,8.84282 -5.43758,10.97097 -2.09966,1.0509 -2.86543,1.27823 -2.86543,0.85061 z M 16.938034,254.4999 c -0.40018,-0.25011 -0.7276,-0.55653 -0.7276,-0.68094 0,-0.4179 1.67365,-2.56166 1.99991,-2.56166 0.17749,0 0.60379,0.23309 0.94734,0.518 l 0.62462,0.51797 -0.69011,1.26796 c -0.78162,1.43606 -1.12144,1.58414 -2.15416,0.93867 z m 48.27698,-2.48529 c -0.95887,-0.61402 -0.99683,-0.36031 0.37064,-2.47711 0.52785,-0.81711 0.93654,-0.83206 1.80819,-0.0661 l 0.6775,0.59531 -0.82635,1.25677 c -0.4545,0.69123 -0.90156,1.25476 -0.99348,1.25233 -0.0919,-0.003 -0.55834,-0.25498 -1.0365,-0.56116 z"
       style="fill:#000000;stroke-width:0.264583"
       id="path38133" /></g></svg>
