<?xml version="1.0" encoding="UTF-8"?>
<svg id="Layer_1" xmlns="http://www.w3.org/2000/svg" viewBox="0 0 3922.16 4226.32">
  <path d="M3573.17,1084.34c-26.61-24.34-39.91-36.5-57.25-51.29-108.84-92.76-192.42-138.25-184.24-181.21.98-5.16,2.5-6.15,12.2-37.1,5.79-18.49,9.59-30.64,13.09-45.24,5.72-23.88,7.3-42.65,9.03-53.89,4.06-26.4,10.36-67.38.32-111.15-9.69-42.22-31.08-70.24-55.86-104.05-8.98-12.26-29.46-38.85-73.55-78.06-34.66-30.83-87.08-72.28-159.38-112.31,58.44,66.45,82.45,126.44,93.63,168.49,20.23,76.07-.76,96.42,27.76,149.99,37.76,70.92,100.78,86.26,101.49,139.76.33,25.46-13.67,46.19-24.72,59.12-14.79-10.34-38.56-26.37-69-44.21-26.95-15.79-41.8-22.85-100.65-53.32-56.4-29.2-84.77-43.94-93.38-50.4-19.88-14.93-40.75-38.45-82.49-85.48-23.64-26.64-35.56-41.52-45.55-63.34-8.72-19.02-16.86-35.76-16.23-55.91,1.3-41.43,36.61-52.55,57.38-94.58,30.83-62.4.26-134.71-3.37-142.98-23.84-54.27-86.75-121.59-156.97-109.68-75.91,12.87-103.91,108.75-108.92,125.9-4,13.7-27.84,93.84,20.21,161.56,20.04,28.24,45.11,43.81,60.65,51.76,12.15,3.25,32.37,7.01,57.06,3.95,22.17-2.75,39.3-9.92,50.02-15.43-6.29,5.89-17.4,14.79-33.53,20.93-15.55,5.92-30.29,7.09-42.69,6.39,11.06,6.27,24.87,15.16,39.01,29.62,12.42,12.71,19.63,24.15,23.67,30.51,17.98,28.33,41.85,64.53,73.11,111.38-76.52-14.27-141.42-27.05-191.38-37.12-173.1-34.9-55.06-14.73-168.76-38.65-87.4-18.39-112.56-20.93-129.94-45.43-14.79-20.84-10.44-38.55-8.61-124.95,1.59-75.07,1.53-112.49-1.19-134.44-9.9-79.97-79.7-133.81-129.44-172.05C2128.55-10.9,1951.75-2.75,1891.73,2.68c128.63,28.56,188.16,82.67,218.69,128,49.45,73.42,46.23,159.66,125.78,205.85,32.76,19.02,46.38,15.9,73.08,38.96,50.11,43.29,61.85,113.11,63.37,168.04-23.05,2.62-56.32,4.17-95.52-2.02-20.43-3.23-25.92-5.94-91.74-27.44,0,0-136.71-44.65-152.38-79.19-.71-1.55-1.21-3.16-1.21-3.16-.67-2.46-.63-4.89-1.21-10.87-.31-3.22-1.1-10.68-3.7-25.6-2.18-12.52-10.39-39.97-21.2-57.82-22.55-37.24-67.01-50.18-81.38-54.36-52.46-15.27-152.46-16.27-182.58,48.9-27.29,59.04,19.79,135.57,70.77,167.59,7.59,4.77,50.07,31.45,99.04,23.29,26.58-4.43,41.28-16.78,62.4-21.68,6.72-6.47,13.88-14.13,21.02-23.11,10.47-13.17,18.31-25.91,24.15-37-.64,7.78-2.98,22.51-12.73,37.64-5.82,9.04-12.68,15.64-19.2,20.55,4.3-.24,8.91-.17,13.94.32,5.74.57,13.4,1.44,49.6,13.79,33.03,11.27,59.76,21.72,78.06,29.18-45.35,14.74-83.83,27.01-113.03,36.25-124.13,39.27-118.99,35.88-187.98,58.21-26.92,8.71-54.02,16.89-81.25,24.59-18.91,5.35-28.3,11.29-44.51,11.83-20.86.71-35.07-5.72-58.65-14.86,0,0-30.84-11.97-74.48-25.96-9.37-3-76.21-23.62-148.57-7.1-33.82,7.72-60.77,21.71-89.55,40.72-112.41,74.24-221.31,204.23-257.41,248.59,111.41-40.92,201.78-60.8,249.25-63.9,39.67-2.6,83.8-1.82,83.8-1.82,28.74.51,33.88,2.24,49.81,1.87,29.86-.68,73.06-2.05,122.92-22.28,19.83-8.04,60.68-24.62,99.55-60.6,28.56-26.44,30.69-26.92,51.62-41.28,34.07-23.36,64.02-32.97,119.28-48.76,78.5-22.43,141.55-38.32,160.5-43.12,33.17-8.41,83.17-21.39,144.8-38.6-13.99,10.77-34.68,26.99-59.3,47.43-32.48,26.97-33.63,30.11-44.73,38.14-58.18,42.12-90.37,22.99-134.34,55.16-31.62,23.13-56.71,63.86-58.92,108.88-2.01,40.89,14.14,100.21,63.23,124.03,53.64,26.03,109.57-8.29,123.66-16.93,38.85-23.84,56.05-58.49,65.32-77.17,10.46-21.07,26.88-54.16,20.6-93.67-1.68-10.54-4.41-18.2-7.45-24.45-6.29-8.67-16.21-20.3-30.81-31.09-16.82-12.43-33.08-18.74-44.07-22.03,7.49-.76,27.95-1.79,46.31,11.26,5.58,3.97,9.77,8.38,12.86,12.35-.77-2.83-1.29-5.93-1.41-9.52-1.04-30.12,47.14-85,116.39-107.32,46.86-15.1,85.3-10,141.34-1.73,147.23,21.72,220.85,32.57,307.19,52.04,56.35,12.7,110.32,27.45,218.26,56.94,36.67,10.02,71.99,19.91,117.28,38.75,43.04,17.9,77.21,36.46,100.6,50.22-96.38,6.85-174.53,3.37-228.5-1.16-104.83-8.8-213.27-26.63-213.27-26.63-105.39-15.89-140.31-24.4-198.37-14.67-45.12,7.56-77.41,21.64-98.12,30.84-158.97,70.58-352.14,273.23-384.27,307.27,97.91-47.03,181.31-75.29,240.56-92.59,148.72-43.42,168.68-24.62,236.59-68.04,39.17-25.04,89.37-60.93,174.66-92.41,12.39-4.57,26.2-8.13,43.46-10.74,107.46-16.22,224.59,6.41,228.82,40.32,2.61,20.94-38.5,41.54-42.7,43.65-43.36,21.73-69.61,4.92-117.19,17.69-53.16,14.28-89.68,61.11-95.36,70.32-28.88,46.73-42.25,130.79,7.81,177.69,51.69,48.43,136.25,24.67,180.09-7.26,39.81-28.99,65.25-78.72,70.89-124.36.75-6.1,1.07-11.85,1.07-11.85.04-8.53-1.47-15.5-2.8-20.14-4.32-11.82-11.13-26.94-22.03-42.94-10.22-15-21.01-26.33-29.94-34.46,8.92,3.73,24.44,11.69,37.88,27.74,7.8,9.31,12.55,18.53,15.46,25.6-.51-13.28.52-26.08,7.95-42.67,14.77-32.96,41.92-50.89,62.68-64.59,9.86-6.51,47.22-30.07,99.71-36.8,81.11-10.4,147.22,25.93,181.42,45.33,40.42,22.92,93.93,78.07,200.97,188.36,25.56,26.34,35.38,37.02,41.28,43.53,22.37,24.63,68.28,75.53,116.34,145.9,21.02,30.78,42.84,61.04,63.07,92.35,23.63,36.57,32.8,53.19,50.85,56.73,24.66,4.83,60.21-15.85,70.29-44.33,23.47-66.32-92.18-172.11-233.02-300.93ZM2365.26,369.54c-36.81-51.34-79.97-106.16-130.35-162.33-64.53-71.93-128.47-132.2-187.46-182.13.98.54,1.97,1.08,2.95,1.63,1,.56,2,1.13,2.98,1.66l-4.18-4.53c45.96,24.66,105.95,63.29,165.6,122.45,81.91,81.26,127.54,165.91,152.22,222.01l-4.5-4.88c.92,2.05,1.88,4.14,2.75,6.11ZM1209.59,816.09c43.87-27.47,106.66-60.05,186.95-81.87,110.27-29.97,205.58-26.6,265.99-19.54-65.42,4.5-140.77,13.89-223.14,31.92-88.33,19.33-165.36,44.36-229.8,69.49ZM2180.31,966.31c39.81-33.11,97.69-73.81,174.3-106.17,105.22-44.44,200.01-53.8,260.75-54.84-65.38,16.05-137.07,37.07-213.21,64.84-83.18,30.34-157.24,63.49-221.84,96.17ZM3182.51,421.2c26.73,26.24,62.7,67.59,92.43,125.82,36.02,70.55,47.2,135.17,51.01,175.74-15.4-45.19-34.69-94.46-58.99-146.42-27.45-58.7-56.45-110.43-84.45-155.14Z"/>
  <path d="M3913.16,2855.98c-8.47-27.52-23.71-88.88-75.3-125.92-30.32-21.77-50.96-19.53-61.82-42.46-6.81-14.38-1.2-35.55,10.31-77.31,23.01-83.51,34.51-125.26,38.95-140.66,0,0,1.7-9.92,16.98-60.37,39.52-130.49,92.87-306.67,34.65-352.27-21.31-16.69-57.91-16.17-75.17-1.05-20.06,17.58-13.7,54.66-11.87,66.84,15.06,100.24,2.09,376.21-104.82,555.14-70.59,118.14-154.68,147.96-183.14,151.1-32.87,3.63-59.42-6.79-59.42-6.79-13.24-3.83-31.2-11.47-41.83-28.17-8.28-13.02-6.37-22.53-13.88-38.9-9.44-20.59-24.72-32.3-35.53-40.58-42.96-32.92-94.51-28.98-101.71-28.31-44.41,4.14-113.02,31.66-121.25,86.97-8.24,55.42,50.01,99.14,60.25,106.82,10.61,7.97,48.96,36.75,93.08,29.66,20.63-3.32,46.38-15.1,66.64-30.26,8.64-6.47,14.74-12.35,21.09-16.9,3.47-9.78,6.82-21.07,9.46-33.75,3.37-16.15,4.81-30.81,5.27-43.32,2.85,9.8,5.89,24.97,4.14,43.32-1.03,10.77-3.45,19.89-5.93,26.99,1.67-.49,4.16-1.15,7.22-1.7,10.73-1.9,19.46-.14,37.54,2.92,11.94,2.02,21.65,4.49,28.24,6.36-76.49,73.27-144.7,119.19-181.66,133.13-19.43,7.33-38.5,12.04-38.5,12.04-80.52,15.7-136.23,11.73-178.29,10.89-72.91-1.47-79.23,22.13-214.15,58.25-53.75,14.39-131.28,31.67-228.95,41.41,40.95,10.97,286.23,75.39,442.02,55.18,20.29-2.63,51.81-6.93,90.06-22.16,49.21-19.6,71.94-42.32,145.22-103.44,69.68-58.12,125.85-101.21,150.92-119.47,36.1-26.28,88.47-61.83,156.3-99.11-39.21,66.53-74.43,121.48-101.69,162.58-68.26,102.91-103.48,155.36-156.81,204.27-17.9,16.42-43.74,37.65-95.41,80.1-9.39,7.71-43.08,35.32-88.5,69.06-66.81,49.63-92.17,62.9-123.49,61.56-6.87-.29-18.55-3.79-42.16-9.79-52.47-13.33-78.84-21.54-99.14-42.53-13.42-13.88-6.57-15.42-27.76-50.33-16.56-27.27-32.15-52.95-59.69-72.63-11.47-8.2-42.81-28.08-85.52-28.71-9.47-.14-91.17-.21-114.94,55.2-22.85,53.26,27.96,110.8,35.78,119.67,5.23,5.93,44.15,48.84,98.06,50.88,13.65.52,34.47-3.19,76.16-11.56,13.15-2.64,24.01-5.13,31.52-6.92,5.16-3.12,15.55-10.35,23.16-23.73,8.79-15.45,8.8-30.17,8.48-36.16,2.03,4.26,7.79,17.75,3.95,34.46-2.72,11.84-8.96,19.74-12.33,23.43,6.79.16,18.28,1.61,51.15,8.21,26.14,5.25,47.75,11.34,63.38,16.24-6.7,2.53-34.01,12.83-40.77,15.38-53.18,20.08-111.62,42.18-374.81,138.65-128.37,47.06-199.09,71.99-268.59,48.91-11-3.65-37.95-12.91-63.88-36.51-12.57-11.44-47.99-45.09-58.93-122.04-12.76-89.82,10.96-161.65,18.54-192.3,19.71-79.72,24.02-196.98-44.9-360.61-117.96,166.33-123.36,267.88-103.19,331.14,5.92,18.56,16.6,41.86,66.07,170.35,16.79,43.61,30.46,79.62,39.62,103.87-25.05-6.84-60.34-19.82-94.76-46.49-60.21-46.64-83.58-108.65-91.16-127.2-27.78-68.06-95.93-170.84-270.81-325.25-17.02,211.16,37.05,308.06,91.77,357.35,43.27,38.98,173.43,131.23,271.54,150.43,15.5,3.03,62.34,15.39,105.58,53.45,21.56,18.98,35.43,38.67,43.6,51.93-96.1,20.54-170.21,12.81-217.94,2.94-40.5-8.38-79.63-22.96-157.9-52.14-44.08-16.43-88.27-32.14-136.36-55.09-57.83-27.59-134.98-69.29-221.58-131.15,4.17-22.62,8.52-41.65,12.14-56.19,7.11-28.59,10.87-37.83,18.03-46.7,10.5-12.99,20.46-15.43,30.53-22.22,42.35-28.52,39.7-102.08,39.4-110.49-1.74-48.35-25.27-82.16-38.22-100.25-30.56-42.69-106.37-117.7-165.1-93.57-50.49,20.75-58.85,102.64-56.95,140.53,2.28,45.33,21.73,80.77,32.23,97.08,6.96,10.8,17.86,28.06,38.58,44.07,17.12,13.23,33.83,20.23,45.28,24.03,11.12,2.11,24.02,3.85,38.42,4.52,13.68.64,26.09.2,36.91-.75-9.61,3.56-21.8,7.09-36.16,9.04-9.76,1.33-18.65,1.67-26.37,1.51,8.14,8.85,10.88,17.29,11.94,22.33,4.72,22.4-8.86,47.87-34.13,64.3-31.66-5.78-79.38-18.25-129.05-48.49-68.38-41.62-111.37-110.04-197.36-246.87-23.19-36.91-46.49-81.69-92.19-171.71-10.58-20.85-25.37-50.47-34.4-92.36-4.87-22.58-6.55-41.71-7.18-54.8,16.09-54.07,38.67-72.78,57.6-79.17,32.28-10.88,52.49,14.58,93.45,5.39,47.61-10.68,72.22-56.72,75.38-62.85,20.05-38.87,26.49-103.03-13.29-139.5-49.6-45.47-138.04-17.6-166.2,24.64-5.78,8.66-17.4,32.21-19.7,55.25-.44,4.39-1.68,20.26-2.64,38.23-.26,4.9-.45,8.93-.57,11.58,2.68,7.67,7.46,18.37,16.15,29.19,13.74,17.11,29.96,25.44,38.8,29.19-9.64-1.5-28.41-5.9-45.34-20.81-6.59-5.8-11.38-11.85-14.83-17.09-3.17,6.19-6.39,12.39-9.65,18.61-13.63,26.01-27.48,51.27-41.49,75.81-4.03-4.22-8.77-9.51-13.82-15.82,0,0-5.95-7.44-11.3-15.34-11.9-17.57-49.13-111.23-44.22-213.76.85-17.7,1.76-30.61,6-48.02,6.9-28.3,17.06-39.18,17.7-82.33,1.88-127.75-94.29-172.51-137.64-346.54-11.06-44.42-14.75-81.46-16.22-103.43-106.82,180.66-103.24,297.98-78.86,372.5,19.98,61.07,47.82,92.11,114.43,223.58,47.6,93.95,80.76,173.86,101.68,227.77-24.86-1.82-60.82-8.17-94.53-31.17-58.55-39.94-53.31-91.18-102.69-120.51-51.36-30.5-135.14-21.43-160.63,19.26-35.15,56.13,37.01,178.16,109.86,188.71,33.29,4.82,53.5-15.59,89.35-28.28-.73.25-1.46.5-2.19.75,3.9-7.87,7.77-16.83,11.21-26.84,6.44-18.74,9.58-35.9,11.07-50.08,1.41,8.72,2.44,21.09.49,35.66-2.17,16.19-7.19,28.92-11.28,37.3-1.99.68-3.98,1.37-5.96,2.05,12.07-3.99,25.86-7.07,42.5-8.03,48.24-2.78,89.07,13.86,116.4,28.7,44.9,96.46,95.67,196.66,153.16,299.49,25.96,46.43,52.15,91.35,78.42,134.77-21.05-9.01-53.28-23.87-90.54-45.74-142.66-83.75-174.59-162.15-242.15-192.37-61.36-27.44-167.63-22.1-363.72,133.93,31.21-4.16,78.47-7.68,134.75-.22,116.5,15.44,126.41,58.66,234,73.77,100.22,14.07,123.33-9.56,210.75,18.12,55.77,17.66,97.4,45.07,123.86,65.48-22.68,18.07-58.2,40.62-104.76,46.45-48.02,6.01-64.25-9.55-102.26-8.99-84.94,1.25-146.81,104.84-169.3,142.5-49.4,82.72-54.28,165.11-53.27,209.16,85.64-98.11,159.53-141.05,212.87-161.89,34.34-13.41,84.39-27.13,119.68-74.56,18.35-24.67,22.64-45.12,48.4-70.44,27.33-26.86,58.91-39.68,82.14-46.35,37.82,25.88,97.79,65.25,155.09,94.83,4.12,2.13,17.4,9.04,34.73,17.44,24.77,12.01,46.67,21.59,93.8,43.2,55.95,25.64,101.97,50.51,145.14,74.89,62.05,35.03,76.86,47.73,128.86,71.66,25.1,11.55,47.7,20.59,64.92,27.47,45.4,18.15,83.78,31.46,111.22,40.47-33.15,14.71-62.25,18.79-80.71,19.97-23.32,1.49-67.74,3.63-109.36-20.17-15.82-9.05-13.41-11.82-40.52-28.84-26.29-16.51-43.67-23.4-61.91-26.58-.65-.11-10.1-2.15-17.69-1.89-46.46,1.56-99.64,39.47-99.34,80.98.37,50.41,73.43,88.44,120.59,81.17,20.28-3.13,43.42-15.82,45.75-17.12,16.82-9.34,21.91-16.1,28.55-22.33,2.14-7.72,4.07-16.77,5.2-26.97,1.73-15.63,1.07-29.33-.27-40.17,3.35,6.9,7.85,18.48,8.56,33.39.48,10.06-.92,18.53-2.45,24.67,1.57-.85,3.67-1.87,6.22-2.82,0,0,3.64-1.36,7.53-2.15,15.87-3.24,95.53,3.17,95.53,3.17,39.02.56,56.12-2.32,58.23,4.08,2.56,7.76-19.25,22-32.9,29.13-44.13,23.05-74.67,13.86-118.5,24.42,0,0-33.89,8.16-82.59,41.81-69.07,47.73-106.27,186.94-90.33,352.62,30.32-102.5,75.96-153.58,113.52-181.35,17.28-12.77,38.85-25.05,81.58-58.03,45.57-35.17,68.36-52.75,87.54-76.37,36.16-44.52,30.78-65.51,68.36-109.32,22.26-25.96,45.01-42.92,59.86-52.77,94.32-10.21,203.22-11.52,322.06,6.6,22.7,3.46,44.71,7.47,66.03,11.93-3.07,17.01-10.61,41.51-29.57,62.73-31.34,35.1-64.95,23.38-106.26,55.24-12.73,9.82-54,45.13-56.33,99.43-1.6,37.33,15.03,87.86,57.54,108.21,57.32,27.44,117.61-21.09,129.18-30.41,58.9-47.41,60.47-122.03,58.86-138.25-1.09-11.04-3.21-19.12-3.21-19.12-2.98-10.67-7.3-18.07-11-27.49-13.26-3.39-27-6.67-41.2-9.78-14.51-3.17-28.64-5.98-42.37-8.47,11.86-1.09,26.01-1.51,41.88-.24,14.11,1.13,26.61,3.36,37.22,5.89-1.82-8.87-2.37-16.28-2.53-21.48-1.5-49.31,26.79-83.95,31.56-89.63.38-.45.7-.82.89-1.04,32.62-5.98,65.23-11.95,97.85-17.93,16.81,10.67,39.13,28.71,48.81,56.72,20.9,60.48-33.78,116.1-57.21,176.87-22.13,57.4-22.67,148.87,72.2,298.3,21.4-31.88,48.38-77.92,70.69-137.17,31.19-82.83,55.25-146.74,34.42-215.46-5.21-17.17-23.79-52.3-50.19-88.47-16.01-21.93-27.13-32.81-39.35-55.94-14.87-28.15-20.77-54.38-23.42-72.34,141.58-47.31,218.18-76.69,262.41-95.14,7.63-3.18,28.81-12.09,58.39-23.53,52.8-20.41,96.35-34.92,124.55-43.89-6.96,10.54-17.11,25.45-30.03,42.91-20.76,28.06-31.51,42.16-44.17,49.48-23.73,13.72-34.91,2.67-65.27,11.69-42.71,12.7-66.5,48.23-71.64,55.91-32.14,47.99-23.8,99.06-21.9,109.32,3.28,17.75,12.44,67.88,51.42,87.54,51.27,25.86,116.65-19.83,145.69-50.87,8.73-9.33,43.4-46.37,43.94-97.12.1-9.17-1.55-18.06-1.55-18.06-2.54-15.16-7.72-26.96-11.83-34.69-5.83-7.69-15.8-18.97-31.07-28.81-15.23-9.82-29.58-14.25-38.98-16.38,7.6-.51,22.45-.47,38.98,6.78,13.71,6.01,22.76,14.43,27.68,19.77.14-1.91.38-4.81.75-8.33,1.85-17.55,5.68-56.32,27.32-92.81,16.17-27.27,35.87-44.48,46.82-53.86,22.18-18.99,34.28-22.73,73.39-46.7,15.27-9.36,38.06-23.88,65.23-43.51,20.95,34.44,43.54,84.92,29.61,135.34-8.2,29.66-22.68,36.32-37.43,63.65-38.94,72.17,4.82,136.32,2.02,215.21-1.73,48.7-21.51,117.59-106.55,199.16,48.66-23.78,188.25-99.82,246.62-253.33,19.77-52,52.71-131.4,16.96-191.18-21.45-35.87-55.99-45.65-80.35-96.34-17.73-36.88-19.17-72.75-18-95.91,54.75-41.15,118.5-96.43,181.71-168.95,49.53-56.82,88.15-112.09,118.06-161.06,1.81,28.7,4.25,69.31,6.82,118.55,2.03,38.87,2.12,44.26,1.03,53.23-7.46,61.48-41.47,73.13-50.64,120.32-9.01,46.37,11.46,100.96,49.51,134.01,6.41,5.57,61.63,52.06,120.82,31.43,56.92-19.84,78.3-88.09,73.53-136.38-4.38-44.39-30.16-74.16-38.52-83.41-29.02-32.12-63.38-42.93-77.27-46.5-10.21-2.28-25.39-4.4-43.5-2.26-13.03,1.54-23.85,4.84-31.94,8.01,6.13-4.45,16.41-10.75,30.49-14.4,11.87-3.07,22.14-3.15,29.14-2.65-3.45-2.31-5.96-4.66-7.66-6.45-4.46-4.71-7-9.53-8.5-12.28-2.18-3.99-5.1-10.22-9.09-58.22-1.03-12.37-6.69-82.4-5.07-113.58,5.36-102.9,113.47-231.36,124.9-244.73,24.21-39.91,32.31-47.88,38.21-49.5.53-.14,1.43-.28,2.66-.39,21.67-1.87,40.34,27.23,44.62,33.9,25.16,39.22-15.91,82.56-10.97,153.6,3.76,54.04,29.61,59.77,50.51,127.09,11.55,37.21,21.84,94.05,8.81,171.82,36.32-64.1,56.71-120.04,68.55-159.64,15.06-50.35,18.05-80.12,19.07-93.63,2.42-31.98,5.02-66.27-6.95-105.19ZM3040.53,3111.33c-100.6,22.37-186.42,15.56-240.64,6.85,73.73-3.75,157.38-12.78,248.23-31,59.54-11.94,114.38-26.25,164.16-41.52-43.49,24.3-101.21,49.98-171.76,65.67ZM2130.93,3373.34c-1.77-18.86-5.45-58.17-10.07-108.73-10.57-115.77-14-158.43-2.56-214.47,4.52-22.14,10.02-39.78,13.78-50.82l-1.14,374.02ZM1846.29,3330.47c-64.37-81.27-95.83-161.44-111.7-213.95,24.62,45.91,53.85,95.01,88.61,145.81,52.95,77.38,107.4,142.16,157.87,195.37-41-28.89-89.53-70.1-134.78-127.23ZM715.44,2259.28c-15.5-68.82-14.72-122.63-14.31-137.86,1.12-41.83,7.01-77.02,12.92-103.21.27,40.84,2.45,84.69,7.42,131.08,11.7,109.4,35.79,204.33,62.09,282.25-26.59-45.53-52.57-103.27-68.12-172.27ZM701.13,3075.88c-89.75-16.73-165.19-10.16-213.35-2.21,35.56-13.5,100.81-32.65,182.69-24.55,122.51,12.12,204.15,77.53,233.02,103.08-42.24-25.15-111.12-59.32-202.35-76.33ZM883.06,3427.31c-87.07,61.66-143.4,131.31-177.19,181.07,13-35.74,41.12-97.66,100.73-154.38,89.19-84.86,192.04-103.96,230.24-109.13-43.71,16.89-97.59,42.65-153.78,82.44ZM1668.4,3892.87c-57.61,50.44-96.79,102.41-122.39,142.53,6.56-26.7,27.19-95.35,91.32-153.83,62.88-57.34,131.71-72.18,159.05-76.59-36.77,19.37-81.83,47.48-127.98,87.89ZM2546.6,4094.22c.19-11.86.36-25.74.46-41.1.58-92.3-2.22-125.07,1.96-183.47,1.31-18.37,3.86-46.8,9.25-81.82,5.87,54.24,8.91,117.83,5.08,188.66-2.93,54.15-9.38,103.36-17.32,146.81.15-6.67.37-16.76.56-29.07ZM3243.97,3515.41c8.36,36.99,15.14,85.29,12.33,141.44-5.28,105.15-41.6,185.05-66.73,230.04,14.64-52.98,28.25-113.41,38.23-180.47,10.41-69.93,14.97-134.18,16.18-191.01ZM3864.74,3077.28c-2.78-38.13-6.38-77.42-10.93-117.79-7.18-63.59-16.1-124.17-26.19-181.55,17.05,40.97,34.74,94.83,41.29,154.1,6.53,59.01,1.95,109.09-4.17,145.24Z"/>
  <g>
    <g>
      <path d="M12.13,1171.52h396.07l12.13,211.97h-17.67c-10.86-70.96-25.24-120.08-43.14-147.36-17.9-27.26-41.41-40.91-70.52-40.91h-37.77v575.95h83.16v23.71H85.93v-23.71h83.16v-575.95h-37.77c-29.11,0-52.62,13.64-70.52,40.91-17.9,27.28-32.29,76.4-43.15,147.36H0l12.13-211.97Z"/>
      <path d="M521.5,1771.17v-575.95h-54.06v-23.7h51.98c31.18,0,54.4-2.33,69.65-6.97v346.78h1.38c23.1-58.57,55.44-87.86,97.03-87.86,16.86,0,33.27,5.81,49.21,17.43,15.94,11.62,26.16,28.28,30.67,49.97,4.5,21.69,6.76,56.4,6.76,104.12v176.18h44.7v23.71h-156.62v-23.71h44.7v-185.01c0-50.2-1.04-85.92-3.12-107.15-2.08-21.22-12.47-31.84-31.18-31.84-20.1,0-37.02,11.55-50.76,34.63-13.75,23.09-22.65,46.65-26.68,70.66-4.04,24.02-6.06,63.3-6.06,117.84v100.87h44.7v23.71h-161.13v-23.71h48.86Z"/>
      <path d="M1117.51,1584.31h-175.34c-1.61,91.73,2.2,148.21,11.44,169.43,9.24,21.23,25.76,31.84,49.55,31.84,48.97,0,82.12-38.12,99.45-114.35h14.9c-7.62,46.18-22.07,80.27-43.32,102.27-21.26,22-44.94,33-71.04,33-37.2,0-69.54-18.51-97.03-55.55-27.49-37.03-41.23-83.59-41.23-139.69s13.45-100.4,40.36-137.6c26.91-37.19,58.16-55.78,93.73-55.78,30.96,0,58.04,14.72,81.26,44.16,23.22,29.44,35.63,70.19,37.25,122.26ZM942.17,1563.39h100.84c1.85-22,2.78-38.73,2.78-50.2,0-49.58-16.75-74.37-50.25-74.37-16.63,0-29.69,5.97-39.15,17.89-9.48,11.94-14.21,28.12-14.21,48.58v58.1Z"/>
    </g>
    <g>
      <path d="M1481.38,1809.29c-60.06,0-111.06-33.78-152.98-101.34-41.93-67.55-62.89-139.76-62.89-216.62,0-92.35,22-171.14,66.01-236.38,44.01-65.23,95.12-97.85,153.33-97.85,54.75,0,103.83,33.16,147.27,99.48,43.42,66.32,65.14,141.63,65.14,225.92s-21.77,162.92-65.32,228.47c-43.54,65.55-93.73,98.32-150.56,98.32ZM1482.77,1180.82c-25.42,0-48.23,7.83-68.44,23.48-20.22,15.65-33.96,42.85-41.24,81.58-7.27,38.74-10.92,106.29-10.92,202.67,0,66.63,2.08,119.78,6.24,159.44,4.16,39.67,14.72,72.52,31.7,98.55,16.98,26.03,43.6,39.05,79.87,39.05,22.18,0,44.4-7.9,66.7-23.71,22.29-15.81,36.84-46.87,43.66-93.2,6.81-46.32,10.22-117.52,10.22-213.6,0-87.08-4.21-147.2-12.65-180.36-8.43-33.16-21.95-57.1-40.54-71.82-18.6-14.71-40.14-22.08-64.62-22.08Z"/>
      <path d="M1796.36,1771.17v-575.95h-49.55v-23.7h47.48c31.88,0,55.09-2.33,69.65-6.97v606.62h48.85v23.71h-165.98v-23.71h49.55Z"/>
      <path d="M2059.71,1422.54v348.63h45.39v23.71h-161.13v-23.71h48.51v-317.96h-48.51v-23.7h49.21c23.56,0,45.73-2.33,66.52-6.97ZM1990.06,1243.57c0-13.63,3.76-25.41,11.27-35.33,7.5-9.91,16.34-14.88,26.5-14.88s19,4.88,26.51,14.64c7.5,9.76,11.26,21.61,11.26,35.56s-3.69,26.66-11.08,36.26c-7.4,9.61-16.29,14.41-26.69,14.41s-19.28-4.89-26.68-14.64c-7.4-9.76-11.09-21.77-11.09-36.03Z"/>
      <path d="M2426.67,1453.22l-131.33,356.08h-9.01l-133.4-356.08h-41.93v-23.7h170.13v23.7h-52.32l90.78,247.3,89.41-247.3h-52.33v-23.7h112.62v23.7h-42.62Z"/>
      <path d="M2735.41,1584.31h-175.34c-1.62,91.73,2.19,148.21,11.43,169.43,9.23,21.23,25.76,31.84,49.55,31.84,48.97,0,82.12-38.12,99.45-114.35h14.9c-7.62,46.18-22.07,80.27-43.32,102.27-21.25,22-44.93,33-71.03,33-37.19,0-69.54-18.51-97.02-55.55-27.49-37.03-41.24-83.59-41.24-139.69s13.45-100.4,40.37-137.6c26.91-37.19,58.16-55.78,93.73-55.78,30.95,0,58.04,14.72,81.26,44.16,23.22,29.44,35.63,70.19,37.25,122.26ZM2560.07,1563.39h100.84c1.85-22,2.76-38.73,2.76-50.2,0-49.58-16.74-74.37-50.24-74.37-16.63,0-29.68,5.97-39.15,17.89-9.48,11.94-14.21,28.12-14.21,48.58v58.1Z"/>
    </g>
    <g>
      <path d="M1363.75,2564.02v-575.95h-71.72v-23.7h240.13c26.34,0,48.52,1.78,66.53,5.34,18.02,3.56,35.35,12.78,51.98,27.66,16.63,14.87,28.59,33.24,35.86,55.08,7.28,21.85,10.92,42.54,10.92,62.06,0,74.07-42.39,122.57-127.17,145.5v2.32c95.64,20.77,143.46,74.07,143.46,159.91,0,21.08-4.28,43.31-12.82,66.7-8.54,23.4-22.17,43.62-40.89,60.66-18.71,17.04-37.83,27.65-57.35,31.84-19.52,4.18-44.06,6.28-73.63,6.28h-237.01v-23.71h71.72ZM1517.26,1988.08h-71.03v261.71h63.76c43.2,0,70.8-11.31,82.81-33.93,12.01-22.62,18.02-58.26,18.02-106.91,0-38.12-3.93-65.85-11.78-83.21-7.86-17.35-17.85-27.96-29.98-31.84-12.12-3.87-29.39-5.81-51.8-5.81ZM1509.29,2273.49h-63.07v290.53h65.14c24.25,0,43.6-2.48,58.04-7.44,14.43-4.95,26.73-18.2,36.9-39.74,10.16-21.54,15.25-55.39,15.25-101.57,0-49.27-7.69-85.22-23.05-107.85-15.36-22.61-45.11-33.93-89.22-33.93Z"/>
      <path d="M1823.24,2564.02v-317.96h-56.13v-23.7h56.83c29.1,0,51.29-2.01,66.53-6.05v87.86h1.38c16.17-58.57,40.08-87.86,71.73-87.86,13.86,0,25,5.66,33.44,16.97,8.43,11.32,12.65,25.03,12.65,41.14,0,14.88-3.41,26.89-10.22,36.03-6.82,9.15-15.65,13.72-26.5,13.72-19.87,0-29.81-13.32-29.81-39.98l1.38-19.99c0-7.12-2.42-10.69-7.27-10.69-7.62,0-17.32,13.79-29.1,41.37-11.78,27.59-17.67,69.73-17.67,126.44v142.71h57.52v23.71h-180.88v-23.71h56.13Z"/>
      <path d="M2229.7,2379.01v-47.42c0-38.73-2.37-64.15-7.11-76.23-4.74-12.09-17.5-18.13-38.29-18.13-37.43,0-56.13,9.61-56.13,28.82,0,5.58,1.56,11.7,4.67,18.36,3.12,6.66,4.68,14.49,4.68,23.48,0,12.71-3.13,22.39-9.36,29.05-6.24,6.66-13.29,9.99-21.14,9.99-10.17,0-18.02-4.26-23.56-12.78-5.54-8.52-8.32-18.51-8.32-29.98,0-24.79,10.79-45.63,32.4-62.53,21.6-16.88,51.69-25.33,90.27-25.33,30.95,0,53.59,4.81,67.92,14.41,14.32,9.61,23.15,21.54,26.5,35.79,3.35,14.26,5.02,34.4,5.02,60.43v171.06c0,25.1,1.33,40.75,3.99,46.95,2.65,6.2,6.75,9.3,12.3,9.3,8.32,0,16.39-7.59,24.25-22.78h8.32c-6,45.25-25.64,67.87-58.91,67.87s-51.29-24.79-57.52-74.37c-27.03,49.58-58.68,74.37-94.95,74.37-24.03,0-43.2-8.76-57.53-26.27-14.32-17.5-21.48-38.97-21.48-64.38,0-79.03,57.98-122.26,173.95-129.69ZM2229.7,2450.6v-50.2c-42.74,2.17-70.93,10.77-84.55,25.8-13.64,15.03-20.45,36.8-20.45,65.31,0,20.77,4.1,36.88,12.3,48.34,8.2,11.47,17.61,17.2,28.25,17.2,13.63,0,25.93-6.11,36.9-18.36,10.97-12.24,18.3-24.56,22-36.96,3.69-12.39,5.55-29.44,5.55-51.14Z"/>
      <path d="M2437.95,2564.02v-317.96h-49.2v-23.7h31.53c31.19,0,59.49-2.33,84.9-6.97v90.64h1.38c23.79-63.52,57.4-95.29,100.84-95.29,20.32,0,37.02,6.97,50.08,20.92,13.04,13.94,21.94,30.37,26.68,49.27,4.73,18.91,7.1,48.19,7.1,87.85v195.24h54.06v23.71h-167.71v-23.71h46.09v-232.42c0-35.63-1.68-60.27-5.02-73.91-3.35-13.63-12.07-20.45-26.16-20.45-22.41,0-42.57,15.42-60.47,46.26-17.9,30.84-26.85,72.28-26.85,124.34v156.19h45.39v23.71h-161.82v-23.71h49.2Z"/>
      <path d="M3021.14,2461.29h14.9c-6.93,44.94-20.56,79.18-40.89,102.73-20.33,23.55-44.83,35.33-73.47,35.33-39.04,0-72.07-19.44-99.1-58.34-27.03-38.89-40.55-83.59-40.55-134.11s13.87-97.77,41.59-137.13c27.72-39.35,62.14-59.03,103.26-59.03,29.33,0,53.25,9.99,71.72,29.98,18.49,19.99,27.72,42.38,27.72,67.17,0,12.4-3.18,23.55-9.52,33.47-6.36,9.92-14.62,14.87-24.78,14.87s-18.19-4.18-24.77-12.55c-6.58-8.37-9.87-19.36-9.87-33,0-9.6,2.83-19.06,8.48-28.36,5.66-9.3,8.49-15.65,8.49-19.06,0-8.37-4.27-15.73-12.81-22.08-8.55-6.34-19.64-9.53-33.27-9.53-24.03,0-41.88,8.68-53.53,26.03-11.67,17.36-17.5,54.08-17.5,110.17s1.09,97.55,3.29,124.35c2.2,26.81,8.03,47.88,17.5,63.22,9.47,15.34,25.06,23.01,46.78,23.01,45.75,0,77.85-39.05,96.34-117.14Z"/>
      <path d="M3130.28,2564.02v-575.95h-54.05v-23.7h51.98c31.19,0,54.4-2.33,69.65-6.97v346.78h1.38c23.1-58.57,55.44-87.86,97.03-87.86,16.86,0,33.26,5.81,49.2,17.43,15.94,11.62,26.16,28.28,30.66,49.97,4.51,21.69,6.76,56.4,6.76,104.12v176.18h44.7v23.71h-156.62v-23.71h44.7v-185.01c0-50.2-1.04-85.92-3.13-107.15-2.07-21.22-12.47-31.84-31.19-31.84-20.1,0-37.02,11.55-50.76,34.63-13.75,23.09-22.65,46.65-26.68,70.66-4.04,24.02-6.07,63.3-6.07,117.84v100.87h44.7v23.71h-161.13v-23.71h48.85Z"/>
    </g>
  </g>
</svg>