<?xml version="1.0" encoding="UTF-8"?>
<svg id="Layer_2" data-name="Layer 2" xmlns="http://www.w3.org/2000/svg" viewBox="0 0 636.76 368.96">
  <defs>
    <style>
      .cls-1 {
        fill: #010101;
      }

      .cls-2 {
        fill: #231f20;
      }

      .cls-3, .cls-4 {
        fill: none;
        stroke: #231f20;
        stroke-miterlimit: 10;
        stroke-width: 2.5px;
      }

      .cls-4 {
        fill-rule: evenodd;
      }
    </style>
  </defs>
  <g id="Layer_1-2" data-name="Layer 1">
    <g>
      <g>
        <path class="cls-1" d="m123.01,168.26c.37-10.92-13.13-8.73-20.52-8.91-.43,0-.78.3-.78.67v27.06c-.04,1.23,3.3.48,3.94.67,1.61.59.46-10.04.79-10.52,6.94.27,17.21.28,16.58-8.98Zm-11.06,5.01h-5.52v-9.94c2.64.1,8.07-.47,10.11,1.08,3.54,3.45.86,9.79-4.58,8.86Z"/>
        <path class="cls-1" d="m147.37,169.38c-7.27-6.64-22.34-2.8-22.49,8,.11,10.34,14.16,14.42,21.63,8.68-.67,2.53,2.59,1.51,3.94,1.7.43,0,.78-.3.78-.67-.2-5.32,1.36-14.13-3.86-17.7Zm-.86,8.31c-.64,9.28-16.7,9.07-16.91-.31.22-9.7,17.11-9.44,16.91.31Z"/>
        <path class="cls-1" d="m160.55,159.35c-.65.25-3.97-.59-3.94.67,0,0,0,27.06,0,27.06-.04,1.23,3.3.48,3.94.67,1.93,0,.25-26.82.79-27.74,0-.37-.35-.67-.79-.67Z"/>
        <path class="cls-1" d="m187.94,169.38c-10.43-10.15-31.25,4.47-18.64,16,6.25,5.52,18.09,4.01,21.59-3.95.2-.47-.26-.92-.74-.9-.6.12-3.84-.33-4.16.35-3.8,6.29-15.85,4.25-15.82-3.64h20.8c2.3-1.74-1.32-6.28-3.03-7.86Zm-16.22,3.81c3.3-4.04,10.5-4.09,13.78,0h-13.78Z"/>
        <path class="cls-1" d="m209.67,176.76c-2.68-1.8-7.45-1.1-9.24-3.79-.21-2.65,4.07-3.4,5.71-2.39,1.07.3.97,1.68,2.02,1.77,4.66.28,5.45-.73,1.75-4.2-10.37-6.61-25.16,7.47-1.9,12.55,2.6,4.35-5.68,5.58-7.44,2.43-.62-.66-.05-2.18-1.27-2.21-3.68-.16-4.99.15-3.05,3.94,5.44,9.83,25.43-.09,13.43-8.1Z"/>
        <path class="cls-1" d="m228.96,166.6l-5.11.15-.28-7.06c-.01-1.22-3.31-.39-3.96-.56-1.61-.3-.18,7.14-.48,7.75-3.07-.38-2.14,1.36-2.16,3.44.03.98,1.72.56,2.32.61l.63,15.94c.01,1.22,3.31.39,3.96.56,1.74.72-.24-16.26.13-16.64.65-.28,6,.49,5.87-.84-.22-.67.44-3.51-.92-3.35Z"/>
        <path class="cls-1" d="m237.89,167.08c-.65.23-3.97-.57-3.94.67,0,0,0,19.33,0,19.33-.04,1.23,3.3.48,3.94.67,1.72.87.39-19.69.79-20,0-.37-.35-.67-.79-.67Z"/>
        <path class="cls-1" d="m234.45,160.01c-2.58,2.37,1.69,5.33,3.81,3.27,2.57-2.38-1.68-5.28-3.81-3.27Z"/>
        <path class="cls-1" d="m265.81,171.83c-2.82-5.66-10.96-7.46-16.2-4.01.45-1.15-5.09-1.07-4.72-.07,0,0,0,19.33,0,19.33-.04,1.23,3.35.48,3.98.67,1.63.71.41-11.86.74-12.27.32-5.8,9.35-7.17,11.79-2.06.94,1.13.34,12.16.52,13.66-.3,1.04,5.15,1,4.81,0-.3-2.81.69-12.83-.92-15.25Z"/>
        <path class="cls-1" d="m275.74,167.08c-.65.23-3.97-.58-3.94.67,0,0,0,19.33,0,19.33-.04,1.23,3.3.48,3.94.67,1.72.87.39-19.69.79-20,0-.37-.35-.67-.79-.67Z"/>
        <path class="cls-1" d="m272.3,160.01c-2.57,2.37,1.69,5.33,3.81,3.27,2.57-2.38-1.68-5.31-3.81-3.27Z"/>
        <path class="cls-1" d="m302.86,169.38c-7.27-6.64-22.34-2.79-22.5,8,.11,10.34,14.16,14.42,21.63,8.68-.67,2.53,2.59,1.51,3.94,1.7.43,0,.78-.3.78-.67-.2-5.32,1.37-14.12-3.85-17.7Zm-.86,8.31c-.65,9.29-16.71,9.07-16.91-.32.22-9.7,17.12-9.44,16.91.32Z"/>
        <path class="cls-1" d="m332.98,171.83c-2.84-5.66-10.93-7.45-16.2-4.01.44-1.14-5.09-1.06-4.72-.07,0,0,0,19.33,0,19.33-.04,1.23,3.34.48,3.98.67,1.62.71.41-11.86.74-12.27.3-5.8,9.36-7.17,11.78-2.05.94,1.12.34,12.16.53,13.65-.3,1.04,5.15,1,4.81,0-.3-2.81.69-12.83-.92-15.25Z"/>
        <path class="cls-1" d="m435.04,177.9c4.22-2.57,4.38-10.13.27-13.2-3.53-2.81-12.05-1.81-16.52-1.98-.41,0-.75.29-.75.64v25.73c-.04,1.17,3.14.45,3.75.64,1.52.56.44-9.55.75-10,8.51-.25,12.27-.47,11.23,9.36,0,.35.34.64.75.64.61-.2,3.77.53,3.74-.64-.04-3.76.77-8.95-3.22-11.19Zm-1.27-6.78c.27,6.09-7.12,4.78-11.23,4.91v-9.71c4.04.15,11.47-1.21,11.23,4.8Z"/>
        <path class="cls-1" d="m462.36,172.26c-17.38-13.12-32.93,16.25-8.86,18.35,3.27.84,13.81-4.72,10.97-7.75-.57.12-3.66-.31-3.96.34-3.61,5.98-15.07,4.04-15.04-3.46h19.77c2.18-1.67-1.24-5.96-2.87-7.47Zm-15.43,3.62c3.13-3.83,9.98-3.89,13.1,0h-13.1Z"/>
        <path class="cls-1" d="m483.06,179.2c-2.4-1.58-12.87-2.57-6.69-6.18,2.68-1.03,3.86.63,5.41,1.95,4.3.44,5.22-.62,1.82-3.94-12.29-7.34-21.2,9.06-3.68,10.94,6.59,3.98-6.21,7.62-6.14,1.54,0-.35-.34-.64-.75-.64-3.49-.25-4.75,0-3.05,3.66,4.85,9.49,24.15.62,13.06-7.33Z"/>
        <path class="cls-1" d="m501.77,173.29v-2.57c.09-1.26-5.01-.4-5.61-.64v-6.71c.03-1.16-3.14-.46-3.74-.64-1.52-.33-.44,6.78-.75,7.35-.57.07-2.19-.3-2.19.64.09,1.99-.71,3.65,2.19,3.21v15.16c-.03,1.16,3.14.46,3.74.64,1.62.74.38-15.45.75-15.81.63-.24,5.69.62,5.61-.64Z"/>
        <path class="cls-1" d="m523.81,172.26c-6.91-6.31-21.25-2.66-21.39,7.6.1,9.82,13.45,13.72,20.56,8.25-.63,2.41,2.47,1.43,3.75,1.61.41,0,.75-.29.75-.64-.19-5.06,1.3-13.42-3.67-16.83Zm-.83,7.6c-.16,9.07-15.89,9.07-16.07,0,.19-9.05,15.88-9.06,16.07,0Z"/>
        <path class="cls-1" d="m551.63,170.08c-.65.22-3.75-.55-3.75.64,0,0,0,10.11,0,10.11-.1,5.62-8.93,6.7-11.21,1.96-.88-1.16-.33-10.59-.5-12.07.23-1-4.83-.96-4.57,0,.27,2.64-.64,11.28.87,13.56,3,5.99,11.99,7.16,16.86,2.82,4.52-2.97,2.69-11.96,3.03-16.39,0-.35-.34-.64-.75-.64Z"/>
        <path class="cls-1" d="m570.07,173.22c1.33-5.98-6.26-2.3-8.83-.68-.12-.61.43-2.54-.75-2.46-.62.21-3.71-.55-3.7.64,0,0,.04,18.38.04,18.38-.03,1.16,3.09.45,3.7.64.41,0,.75-.29.75-.64-.1-9.24-1.33-13.49,8.79-15.88Z"/>
        <path class="cls-1" d="m592.16,172.26c-6.91-6.31-21.24-2.66-21.39,7.6.11,9.83,13.47,13.71,20.56,8.25-.63,2.41,2.47,1.43,3.75,1.62.41,0,.75-.29.75-.64-.18-5.06,1.29-13.43-3.67-16.83Zm-.83,7.6c-.17,9.06-15.9,9.08-16.07,0,.18-9.06,15.88-9.05,16.07,0Z"/>
        <path class="cls-1" d="m620.06,174.6c-2.67-5.39-10.45-7.08-15.4-3.81.39-1.09-4.79-1.02-4.49-.07,0,0,0,18.38,0,18.38-.04,1.17,3.19.45,3.79.64,1.55.68.39-11.28.7-11.67.3-5.52,8.88-6.82,11.2-1.96.88,1.07.33,11.56.5,12.98-.23,1,4.83.96,4.57,0-.29-2.66.65-12.21-.88-14.49Z"/>
        <path class="cls-1" d="m635.96,170.08h-4.87v-6.71c.03-1.16-3.14-.46-3.75-.64-1.52-.33-.44,6.78-.75,7.35-.57.07-2.18-.29-2.18.64.09,1.98-.71,3.65,2.18,3.21v15.16c-.03,1.16,3.14.46,3.75.64,1.62.74.38-15.45.75-15.81.63-.25,5.69.63,5.61-.64-.18-.64.55-3.32-.75-3.21Z"/>
        <g>
          <g>
            <path class="cls-1" d="m8.63,201.16c12.42-4.59,21.14-7.72,23.17-18.76.14-3.68-19.43,7.87-19,7.13-4.47,9.04-5.71,8.85-4.16,11.63Z"/>
            <path class="cls-1" d="m76.58,69.82c3.52,0,5.17-4,8.58-8.97-5.89-12.13-13.05-.34-15.55,3.84-1.15,1.27,6.46,4.44,6.98,5.14Z"/>
            <path class="cls-1" d="m83.75,135.67c13.6-6.61,21.86-7.5,22.24-19.83-8.52,2.82-12.82,6.04-18.04,7.7-4.49,7.86-6.81,10.83-4.2,12.13Z"/>
            <path class="cls-1" d="m259.11,61.9c3.51-.06,5.92-4.79,8.69-9.39-.02-1.65-6.04-5.85-8.83-4.85-4.85,8.44-12.01,8.2.14,14.24Z"/>
            <path class="cls-1" d="m309.4,54.62c-1.24-14.57-12.72-41.23-17.78-5.48-7.67,34.92,2.3,22.39,5.39-.33,16.63,22.42-7.67,59.11-39.16,47.97,9.36-8.38,15.07-22.03,4.57-25.37-9.64,1.54-20.45,15.57-18.61,24.01-5.85,3.04-12.18,5.31-12.6-4.28-.55-22.87.81-37.33-1.38-45.35-7.87,1.88-6.1,13.6-5.98,20.68,8.09,24.39-27.85,44.33-35.58,28.13,5.56-2.45,16.76-21.88,9.99-25.06-.49.26-7.22,12.53-10,12.63,1.03-3.95-1.25-8.59-4.17-2.99-2.07,6.61-4.17,7.98-9.53,11.6.74-12.67-4.79,1.09-8.12,3.99-7.31,6-26.73,8.53-30.18-1.25,26.99-18.96,41.01-52.44-5.53-24.25,13.41-33.4-7.11-73.05-19.95-20.9.06,1.23,1.94,2.19,2.98,1.05,5.26-10.69,8.12-15.07,8.55-14.89,10.56,11.57,4.66,33.68-3.44,58.48-4.79,3.82-13.8,9.32-20.49,7.95,3.92-5.4,7.1-9.93,4.2-14.15-7.24,5.28-15.74,16.04-27.08,14.15,8.73-11.18,6.52-20.2-4.51-6.33-9.79,5.79-17.22,10.17-22.35,13.2-6.29,3.55-14.62,23.36-4.5,30.69.49,1.1,10.1,2.59,10.95,4.43-25.63,45.96-74.81,23.58-31.07-20.5,8.99-11.66,23.4-31.08,18.03-39.68-5.75,6.87-7.26,18.52-10.97,21.73C21.7,117.24-2.24,142.65.17,161.09c-.02,28.78,33.01,23.26,47.92,2.97,8.37-11.99,22.31-28.76,6.15-35.68-5.63-1.81-8.48-3.82-8.48-5.99-1.96-.69,19.08-12.59,23.58-14.66,5.28,6.51,15.98,4.31,22.76-.15,6.06,7.78,18.65,3.35,25.68-1.61-.03,1.24.31,6.29,2.84,3.79.36-5.8,4.85-9.25,9.46-11.72,6.38,23.71,40.73,11.68,52.89-1.36-.51,23.69,34.08,15.19,40.6-1.33-2.56,18.77,13.73,19.25,25.98,8.01,32.44,27.8,64.09-20.97,59.84-48.74Zm-48.88,29.35c1.86.08-8.64,10.47-9.86,3.77.02-1.47,9.74-8.52,9.86-3.77Zm-107.9-13.83c1.57,1.89-22.63,16.58-28.01,19.4.27-10.06,18.69-17.83,28.01-19.4Z"/>
            <path class="cls-1" d="m319.57,122.62c51.64-10.46,31.37-67.59,12.57-96.85-7.25,4.02-5.4,20.84-6.63,36.08.23,11.55.91,14.16,4,14,3.96-3.05,1.53-12.22,3.79-20.95,32.22,49.25-20.77,56.3-13.72,67.72Z"/>
          </g>
          <g>
            <path class="cls-1" d="m342.05,168.95c-5.19,18.47,54.52,22.53,68.56,12.41-6.93-3.18-38.16,2.05-50.52-3.56-34.09-11.8,17.9-32.34,27.56-43.26,2.55-2.6,9.19-17.16,4.15-18.18,9.7-5.43,16.62-7.65,25.29-15.83,3.45,12.32,18.09,13.78,25.78,6.77,1,.94,2.53-1.05,3.45-1.32-.03,1.25.32,6.29,2.84,3.79.38-5.81,4.77-9.19,9.46-11.72,8.36,26.55,43.08,9.55,50.04-6.64,7.37-5.37,17.96,2.22,16.7-13.96-2.96-1.92-8.71-1.07-11.09-1.66,10.31-13.44,18.88-37.48,1.35-47.82-7.34,10.54-8.6,56.76.4,18.71,9.2,13.32-12.65,23.92-10.5,36.96-7.03,11.34-31.16,25.39-40.72,9.88,26.9-18.87,41.07-52.46-5.53-24.25,13.41-33.34-7.09-73.09-19.96-20.9.07,1.55,2.52,2.17,3.34.65,10.18-23.79,11.92-15.66,13.73,7.08,0,6.37-3.02,18.78-8.97,36.91-4.25,3.28-9.56,6.11-13.52,5.91-14.22-.72.65-12.92-.05-16.41.71-8.08-24.67-4.82-25.86-2.04-2.3,3.97-6.08,10.55-4.58,12.9.63.67,5.23-1.19,7.53.34-11.1,7.48-42.61,19.85-37.98,38.38-13.83,7.36-30.83,22.5-30.92,36.87Zm49.32-52.34c-2.54,2.38-9.33,9.35-11.74,9.45-.19-.82,3.25-4.75,11.8-9.5-.02.02-.04.03-.06.05Zm61.78-27.08c.27-10.07,18.7-17.84,28.02-19.4,1.56,1.89-22.64,16.58-28.02,19.4Z"/>
            <path class="cls-1" d="m539.97,122.62c51.64-10.46,31.36-67.61,12.57-96.85-7.25,4.01-5.41,20.83-6.64,36.08.23,11.55.91,14.15,4,14.01,4.3-4.24,1.34-11.68,3.8-20.95,32.23,49.22-20.77,56.3-13.72,67.72Z"/>
          </g>
          <path d="m487.59,121.25c15.29-5.9,32.43-9.99,40.72-22.79,11.93-10.89,12.94,16.92-1.52,3.57-5.56,13.15-25.04,18.13-39.21,19.21Zm42.49-21.32c1.62.84,3.02,1.56,4.49,2.32.78-2.58-2.09-4.14-4.49-2.32Z"/>
          <path d="m339.54,0c-11.66,14.35-57.34,18.44-76.58,29.9-5.89,3.38,7.12,2.99,6.41,6.37,1.19,5.59-4.77,2.43-8.06,1.26C244.61,20.88,326.52,6.72,339.54,0Z"/>
          <path d="m151.56,144.21c13.1-2.15,21.68-16.06,32.47-17.11,4.36,2.78,5.85-1.06,7.59-3.76-.58,2.07,1.82,3.09,3.93,2.25-1.25-1.06-.29-2.17-.33-3.34,3.83,3.07-.27,8.81-4.64,5.14-1.38,2.09-2.92,4.7-5.99,2.89-10.26-2.23-18.84,15.95-33.02,13.94Z"/>
          <path d="m70.92,44.94c-1.35-3.33-3.83-16.06-8.41-14.9-2.19.84-4.23-1.23-5.93-2.29-.16,7.81-37.95,26.75-34.81,20.02,12.23-7.59,28.67-12.05,36.06-24.04,6.97-8.87,13.37,8.08,14.67,13.01,2.2-4.9,3.04-22.58,12.6-16.97,2.16,2.09,2.47,3.83,1.11,6.15-.59,1.08-1.35,1.26-2.29.21-10.13-7.02-6.04,16.74-13,18.82Z"/>
          <path d="m410.34,130.42c-15.89-3.71,14.14-22.78,4.53-8.08-1.2-3.71-5.69-.08-5.19,1.91,4.22,4.44,8.32-.93,12.07-2.51-.21,2.4-.85,4.79-3.38,6.22-20.22,13.6-8.39,16.44,10.04,12.51-12.42,10.7-32.8,5.12-18.08-10.05Z"/>
          <path d="m209.05,24.07c17.89,10.83-2.23,7.73-4.25,14.04,2.25,6.01,3.48,12.18,3.25,18.51-1.25,13.3-2.12-10.16-4.34-15.11-1.15-4.13-1.39-9.56,4.56-10.81,3.43-1.05-1.67-2.79-3.93.6,2.09-9.19,4-6.59-1.32-16.38-1.09-1.81-3.5,1.1-5.43-1.68-.87-.64-1.53-1.41-.72-2.46,4.82-8.35,10.96,4.26,11.48,8.82,2.1-4.22,1.03-13.31,7.92-13.59,3.23,1.33,3.15,4.06,1.67,6.63-6.65-7.52-7.18,7.96-8.88,11.43Z"/>
          <path d="m145.66,126.31c-4.29,6.48-24.39,21.88-26.74,17.05,1.4-2.49,7.61-5.08,5.28-7.98-15.71-16.54,24.86-19.35,1.16,4.7,35.09-20.01.98-14.62,19.82-25.57,6.09-1.21,1.69,6.07,3.16,8.47,4.48,2.23.42,6.84-2.68,3.33Zm-19.93,9.7c13.63-9.95-6.42-13.99-2.37-5.85,1.85,1.63,3.33,3.31,2.37,5.85Zm20.15-14.07c.58-2.63-.8-5.21-3.7-2.91.71,1.62,1.83,2.01,3.7,2.91Z"/>
          <path d="m368.19,46.5c-5.8-1.34-11.8-.72-17.73-.9,1.51-9.91,14.05-7.38,22.25-6.9,11.19,2.26-8.81,16.56-15.35,16.05-15.48,3.09,8.43-4.74,10.82-8.26Z"/>
          <path d="m16.12,78.13c2.39-5.63,1.85-17.2,10.14-17.67,3.84,1.47,4.29,5.31,2.38,8.13-10.75-8.44-7.52,12.41-13.54,17.25-1.91-3.59-2.92-15.38-8.39-14.34-2.09.73-4.02-1.66-5.42-2.73,2.34-14.58,15.16,2.35,14.81,9.37Z"/>
          <path d="m79.39,164.64c2.39-5.63,1.85-17.2,10.14-17.67,3.84,1.47,4.29,5.31,2.38,8.13-10.75-8.44-7.52,12.41-13.54,17.25-1.91-3.59-2.92-15.38-8.39-14.34-2.09.73-4.02-1.66-5.42-2.73,2.34-14.58,15.16,2.35,14.81,9.37Z"/>
          <path d="m405.45,60.39c-5.68,22.07-15,.32-6.72-10.14,9.45-18.66-12.5-22.97-4.69-30.5,11.79,7.82,11.21,21.24,6.21,32.05-3.95,5.22-2.56,19.64,5.2,8.59Z"/>
          <path d="m165.17,46.81c1.59-6.04,2.69-16.66,9.68-20.18-5.88,11.6,9.25,8.73,3.26,21.34-2.62,4.82-13.78,7.3-12.94-1.16Zm4.9-8.3c-4.49,6.65-2.33,11.23,6.09,6.24,3.08-2.39-4.39-4.42-6.09-6.24Z"/>
          <path d="m482.06,53.98c2.55-10.09-12.15-27.73,3-32.46-2.11-2.45-3.91-.47-5.68,1.36-1.55-13.99,18.63-3,9.42,2.1-2.79,1.32-10.54,1.07-8.62,5.05,2.28,7.45,4.89,17,1.88,23.96Z"/>
          <path d="m94.3,66.18c8.25-23.13,25.58,2.72-3.54,16.73,2.72-3.9,23.35-23.36,3.54-16.73Z"/>
          <path d="m303.62,136.55c8.25-23.13,25.58,2.72-3.54,16.73,2.72-3.9,23.35-23.36,3.54-16.73Z"/>
          <path d="m376.45,80.41c-10.98,25.36-14.75-7.84-4.05-15.81-2.49,5.84-8.92,28,4.05,15.81Z"/>
          <path d="m245.25,133.21c-10.98,25.36-14.75-7.84-4.05-15.81-2.49,5.84-8.92,28,4.05,15.81Z"/>
        </g>
      </g>
      <g>
        <path class="cls-3" d="m407.96,322.53c2.22-3.37,4.46-6.42,6.97-9.46-1.87,3.73-4.34,6.86-6.97,9.46Z"/>
        <path class="cls-3" d="m366.25,260.91c4.89.97,8.62,1.71,8.36,2.54-.34,1.16-8.18,2.01-10.57,2.25-5.17.53-10.85.99-16.96,1.3-6.19.32-11.9.43-17.06.42-3.1.14-13.43.42-21.94-3.29-5.19-2.26-7.49-5.04-8.51-6.63,1.62-1.4,4.04-3.89,4.76-7.04.33-1.48.22-2.75-.04-3.74,4.8,2.14,10.24,4.18,16.41,6.01,13.78,4.09,27.23,5.94,37.61,6.82,0,0,4.52.68,7.94,1.35Z"/>
        <path class="cls-3" d="m433.23,285.05c9.53-7.47,20.69-13.62,21.56-12.6.19.22-.13.75-9.61,10.52-4.64,4.78-7,7.2-8.94,9.05-4.9,4.66-6.2,5.4-10.08,9.04-.56.53-5.92,5.58-11.22,12,3.37-6.7,2.61-10.94,8.22-18.34,3.06-4.04,6.03-6.51,10.08-9.68Z"/>
        <path class="cls-4" d="m304.29,246.72c.26,1,.37,2.27.04,3.74-.72,3.15-3.14,5.64-4.76,7.04,1.03,1.59,3.33,4.36,8.51,6.63,8.51,3.7,18.84,3.43,21.94,3.29,5.16.01,10.87-.1,17.06-.42,6.11-.31,11.79-.77,16.96-1.3,2.39-.24,10.22-1.09,10.57-2.25.25-.83-3.47-1.57-8.36-2.54-3.42-.68-7.94-1.35-7.94-1.35-10.38-.88-23.83-2.74-37.61-6.82-6.16-1.83-11.61-3.87-16.41-6.01Zm-33.03-29.52c6.85-.51,38.09,5.93,48,10.31,11.61,5.14,18.06,8.89,20.19,10.15,11.45,6.78,19.03,13.36,23.87,18.22,2.21,1.21,5.52,2.7,10.16,3.85,8.35,2.07,16.36,1.86,21.31,1.71,4.12-.13,10.29-.55,17.68-1.97,2.21-.66,3.55-1.63,3.35-2.32-.09-.34-.54-.56-.73-.67-1.19-.6-2.96-.45-3.32-.41-3.22.18-7.79.28-13-.17-2.09-.18-10.91-.95-21.49-5.17-8.62-3.44-18.83-7.51-20.93-15.01-.73-2.61-2-7.13,3.8-10.48,6.84-3.96,18.02-3.09,18.82-3.02,0,0,26.99.25,40.79,16.22,1.2,1.39,3.92,4.53,2.27,8.47-.53.6-1.12,1.36-1.5,2.19-.39.84-.58,1.75-.32,2.63.85,2.89,5.97,3.84,10.17,4.57,6.67,1.16,12.04.69,14.24.47,8.18-.8,11.89-1.8,22.5-3.73,2.64-.48,8.49-1.42,20.21-3.31,9.45-1.53,14.18-2.29,18.37-2.89,9.09-1.3,16.9-2.23,22.96-2.88,7.21-.89,17.47-2.24,29.85-4.12,14.47-2.2,18.08-2.24,18.84-.78,1.12,2.16-4.28,7.53-10.54,10.52-7.69,3.66-12.43,1.71-31.23,2.43-7.48.28-12.85.83-20.67,1.62-12.21,1.24-18.45,1.89-25.26,3.72-7.14,1.91-13.21,3.54-19.73,7.95-6.55,4.44-10.31,9.88-16.48,18.52-2.68,3.75-4.15,5.82-5.72,9.06-3.51,7.21-3.11,11.12-5,17.29-2.57,8.37-7.11,14.05-10.29,17.7-7.63,8.77-12.24,9.09-22.92,17.45-15.7,12.29-20.61,23.24-22.45,22.3-2.58-1.32,8.32-23.35,15.06-35.42,2.03-3.62,3.92-6.79,5.84-9.71,2.63-2.6,5.1-5.74,6.97-9.46,5.3-6.42,10.66-11.47,11.22-12,3.88-3.64,5.19-4.39,10.08-9.04,1.94-1.85,4.3-4.27,8.94-9.05,9.48-9.77,9.8-10.3,9.61-10.52-.87-1.02-12.02,5.13-21.56,12.6-4.05,3.17-7.02,5.64-10.08,9.68-5.61,7.4-4.85,11.64-8.22,18.34-2.51,3.04-4.76,6.09-6.97,9.46-7.23,7.15-15.69,10.27-16.4,10.52-2.03.72-21.85,7.71-32.16-2.22-8.71-8.38-3.85-22.5-3.29-24.08,4.68-12.97,18.2-18.32,22.92-20.19,4.28-1.69,12.77-5.05,22.96-3.72,5.16.67,8.64,2.27,14.7,1.32,3.25-.51,5.88-1.75,11.01-4.19,8.89-4.23,15.68-7.46,15.14-10.08-.5-2.41-6.94-3.19-8.74-3.41-5.69-.69-9.98.53-14.24,1.64-4.64,1.21-11.38,2.84-20.02,4.48l-44.76,15.4c-1.99,3.24-5.18,7.76-10.01,12.39-3.09,2.95-12.3,11.16-37.16,18.88-22.58,7.01-41.2,8.37-46.83,8.71-12.75.77-31.34.65-53.3-3.98,7.29-1.62,18.56-4.51,31.67-9.6,31.88-12.38,40.82-24.65,63.77-30.61,10.67-2.77,26.96-4.86,49.3.15,11.44-3.75,22.88-7.5,34.32-11.26,2.04-.86,4.72-2.13,4.33-2.81-.56-.97-7.05-.23-9.02-.02-7.53.8-21.97,1.69-52.37,2.1-3.86-.01-9.31.06-15.89.41-9.57.52-14.39.78-20.11,2.13-3.67.87-10.11,2.76-16.65,6.94-6,6.72-13.6,10.96-18.07,13.15-15.1,7.38-36.16,11.73-53.37,9.89-4.61-.49-11.06-1.24-13.42-4.25-2.54-3.25.58-8.04,7.69-12.36,0,0,23.26-17.09,71.55-11.68,0,0,8.57-1.19,8.51-2.11-.03-.5-2.7-.73-7.19-.96-10.16-.53-15.87-.36-22.86-.49-6.33-.12-5.46-.34-17.22-.75-5.88-.21-10.69-.32-13.85-.38-5.17.67-10.41,1.42-15.72,2.25-10.86,1.68-21.34,3.57-31.41,5.62-15.7,5.32-29.2,9.9-46.23,10.67-8.22.37-19.18.76-32.22-3.91-13.86-4.96-23.12-13.15-28.07-18.27,13.55-.19,24.27-1.73,31.54-3.1,9.01-1.7,13.57-3.29,22.59-4.35,10.22-1.2,18.74-.85,24.42-.34-1.51-.73-3.01-1.51-4.5-2.35-2.62-1.48-17.05-11.89-7.43-19.22,6.53-4.98,22.61-7.29,38.31-4.47-4.37-6.06-6.33-12.32-7.26-15.31-2.31-7.38-4.08-13.03-1.42-15.2,3.03-2.48,10.61,1.05,25.75,8.11,6.84,3.19,11.51,5.39,17.48,9.35,3.79,2.51,9.34,6.54,15.2,12.3,6.11,5.99,6.63,8.04,11.52,13.13,3.77,3.92,9.77,9.26,18.98,14.38,2.63.94,34.9,12.19,45.89,7.1,2.47-1.14,2.48-2.11,2.48-2.11,0-.28-.15-.81-3.4-2.07-3.17-1.23-6.56-2.11-6.58-2.12-3.73,0-9.05-.27-15.28-1.54-8.94-1.83-20.33-4.15-28.57-13.19-5.87-6.44-13.17-19.58-7.76-28.37,4.18-6.8,13.82-7.51,15.64-7.64,9.97-.73,16.94,5.09,18.43,6.39Z"/>
        <path class="cls-3" d="m304.29,246.72s0-.02,0-.03"/>
        <path class="cls-3" d="m271.26,217.2c-.98.07,1.13,5.69,2.54,7.66,4.26,5.13,13.21,14.15,30.5,21.86"/>
        <path class="cls-3" d="m170.17,234.01c8.82,12.24,22.41,17.67,37.04,21.9,16.8,4.86,32.91,7.28,32.91,7.28,13.77,3.09,16.64,4.16,16.33,4.52-.28.33-3.26.09-8.9-.37-5.13-.42-11.04-.91-19.25-2.15-3.64-.55-8.35-1.33-13.73-2.45.4-1.33.79-2.67,1.18-4"/>
        <path class="cls-3" d="m143.79,260.04c.18.02.37.04.55.05"/>
        <path class="cls-3" d="m143.79,260.04c29.45,14.25,61.43,7.9,61.43,7.9"/>
      </g>
      <g>
        <path class="cls-2" d="m345.3,288.46c-8.53,3.58-17.16,6.92-25.86,10.06-8.69,3.17-17.46,6.11-26.27,8.92-4.41,1.39-8.84,2.72-13.28,4.02-2.22.65-4.46,1.24-6.69,1.86l-3.35.92-3.37.84c-8.97,2.26-18.05,4.28-27.26,5.21,2.26-.51,4.52-.98,6.77-1.46l6.71-1.69c4.46-1.2,8.91-2.4,13.33-3.71,8.85-2.59,17.68-5.27,26.48-8.08,8.81-2.76,17.59-5.61,26.38-8.44,8.78-2.86,17.59-5.66,26.41-8.45Z"/>
        <path class="cls-2" d="m171.6,268.61c-7.26,1.44-14.58,2.59-21.92,3.53-7.34.97-14.71,1.69-22.09,2.26-3.69.27-7.39.47-11.09.65-1.85.07-3.7.1-5.56.15l-2.78.06-2.78-.02c-7.4-.04-14.87-.36-22.14-1.81,1.85.08,3.7.19,5.53.31l5.53.05c3.69-.04,7.37-.09,11.05-.26,7.36-.3,14.72-.74,22.08-1.31,7.36-.52,14.71-1.15,22.07-1.77,7.35-.65,14.72-1.24,22.1-1.84Z"/>
        <path class="cls-2" d="m239.93,259.56c-1.67-.41-3.26-1.09-4.85-1.71-1.59-.64-3.16-1.33-4.73-2.01-3.13-1.4-6.23-2.87-9.28-4.42-6.13-3.07-12.1-6.46-17.95-10.06-2.9-1.84-5.78-3.71-8.6-5.67-2.8-2-5.58-4.02-8.24-6.2-5.3-4.36-10.43-9.1-14.31-14.78,4.64,5.05,9.98,9.27,15.44,13.32,5.5,3.99,11.17,7.75,16.96,11.33,5.77,3.61,11.65,7.05,17.57,10.44,2.97,1.68,5.93,3.36,8.93,5.01,1.49.84,2.99,1.64,4.5,2.46l2.26,1.2c.76.39,1.5.82,2.31,1.1Z"/>
        <path class="cls-2" d="m355.1,254.92c-6.8-1.91-13.51-4.11-20.14-6.53-6.63-2.41-13.19-5.05-19.66-7.89-6.45-2.88-12.84-5.94-18.98-9.47-6.12-3.51-12.19-7.39-17.08-12.52,2.73,2.24,5.64,4.2,8.67,5.97,3,1.81,6.11,3.44,9.23,5.05,3.13,1.58,6.27,3.15,9.46,4.61,3.18,1.5,6.37,2.96,9.59,4.36,6.41,2.87,12.9,5.58,19.39,8.31l19.52,8.12Z"/>
        <path class="cls-2" d="m287.55,260.84c.56-.91,1.3-1.47,2.06-1.92.76-.44,1.55-.74,2.35-.97,1.6-.44,3.21-.57,4.8-.49-1.55.28-3.06.78-4.39,1.51-.66.37-1.28.79-1.79,1.28-.5.48-.91,1.05-1.06,1.56l-1.97-.96Z"/>
        <path class="cls-2" d="m202.4,267.96c.32-.84.83-1.53,1.4-2.08.57-.55,1.2-.99,1.85-1.35,1.29-.72,2.66-1.18,4.03-1.51-1.24.67-2.42,1.46-3.38,2.39-.96.92-1.7,2.07-1.78,3.11l-2.12-.56Z"/>
        <path class="cls-2" d="m272.55,276.46c-.35.55-.42,1.29-.05,2.06.36.76,1.06,1.45,1.85,2.01-.94-.23-1.89-.59-2.71-1.33-.41-.37-.76-.85-.99-1.43-.22-.58-.29-1.24-.21-1.88l2.11.58Z"/>
        <path class="cls-2" d="m410.02,255.75c.13-1.02.67-1.7,1.22-2.21.57-.5,1.19-.83,1.81-1.09,1.26-.5,2.54-.7,3.8-.74-1.19.4-2.33.96-3.26,1.69-.46.37-.86.79-1.12,1.22-.26.42-.36.91-.26,1.15l-2.19-.03Z"/>
        <path class="cls-2" d="m100.12,278.16c.56-.67,1.27-1.16,2-1.62.75-.41,1.52-.8,2.38-.98-.7.52-1.44.91-2.15,1.36-.74.41-1.44.86-2.22,1.24Z"/>
        <path class="cls-2" d="m153.38,274.9c1.12-.83,2.28-1.58,3.38-2.41,1.13-.79,2.19-1.66,3.3-2.51-.86,1.11-1.93,2.02-3.05,2.86-1.14.8-2.34,1.54-3.64,2.06Z"/>
        <path class="cls-2" d="m94.53,270.19c1.61.86,3.22,1.68,4.89,2.38,1.65.74,3.36,1.35,5.06,2.01-1.79-.37-3.52-.97-5.2-1.68-1.67-.75-3.3-1.6-4.74-2.72Z"/>
        <path class="cls-2" d="m106.15,270c1.19.77,2.38,1.5,3.63,2.13,1.23.67,2.52,1.22,3.8,1.83-1.38-.32-2.7-.87-3.97-1.5-1.25-.67-2.46-1.45-3.46-2.46Z"/>
        <path class="cls-2" d="m114.94,269.97c.72.42,1.38.87,2.09,1.26.69.43,1.41.79,2.1,1.25-.81-.17-1.57-.53-2.29-.93-.7-.44-1.38-.92-1.9-1.58Z"/>
        <path class="cls-2" d="m120.56,266.87c1.77,1.34,3.59,2.58,5.52,3.66,1.9,1.12,3.9,2.06,5.89,3.03-2.11-.68-4.14-1.62-6.08-2.7-1.92-1.12-3.76-2.4-5.33-3.98Z"/>
        <path class="cls-2" d="m133.61,265.46c2.01,1.32,4.08,2.52,6.24,3.55,2.14,1.06,4.37,1.94,6.61,2.82-2.33-.59-4.59-1.45-6.77-2.48-2.16-1.07-4.25-2.31-6.08-3.88Z"/>
        <path class="cls-2" d="m144.49,267c1.31.63,2.59,1.29,3.92,1.88,1.3.62,2.64,1.16,3.97,1.77-1.42-.32-2.79-.85-4.12-1.44-1.31-.63-2.61-1.32-3.76-2.21Z"/>
        <path class="cls-2" d="m154.74,263.84c1.33.86,2.65,1.7,4.04,2.42,1.37.77,2.8,1.42,4.21,2.12-1.53-.42-2.98-1.06-4.39-1.8-1.38-.77-2.72-1.65-3.86-2.75Z"/>
        <path class="cls-2" d="m170.81,274.55c1.02-1.04,2.13-1.98,3.23-2.92,1.13-.91,2.26-1.83,3.47-2.63-1.02,1.05-2.13,1.98-3.23,2.92-1.13.91-2.25,1.82-3.47,2.63Z"/>
        <path class="cls-2" d="m179.5,272.94c.44-.76,1.06-1.39,1.7-1.98.34-.27.68-.55,1.04-.79l.55-.34c.09-.05.2-.12.32-.13.06,0,.13-.03.19.07-.02.09-.11.1-.15.06.05.03.1-.04.09-.06,0,0-.07,0-.11.02-.09.04-.16.11-.24.18l-.49.42c-.32.28-.66.55-.97.84-.66.54-1.27,1.14-1.94,1.7Z"/>
        <path class="cls-2" d="m186.49,272.41c.38-.57.86-1.03,1.33-1.51.5-.44.99-.89,1.58-1.24-.38.57-.86,1.03-1.33,1.51-.5.44-.99.89-1.58,1.24Z"/>
        <path class="cls-2" d="m121.64,277.92c1.41-1.06,2.93-1.95,4.45-2.82,1.55-.83,3.11-1.63,4.76-2.27-1.51.91-3.05,1.73-4.58,2.59-1.54.83-3.06,1.7-4.63,2.49Z"/>
        <path class="cls-2" d="m92.86,277.49c.94-.71,1.98-1.25,3.03-1.75,1.07-.47,2.16-.9,3.31-1.16-1.04.55-2.11.99-3.15,1.5-1.06.46-2.1.98-3.19,1.42Z"/>
        <path class="cls-2" d="m108.86,277.52c.82-.69,1.77-1.21,2.73-1.68.98-.43,1.98-.82,3.03-1.03-.95.5-1.93.9-2.88,1.36l-2.89,1.34Z"/>
        <path class="cls-2" d="m125.39,279.08c1.7-1.64,3.65-2.99,5.68-4.2,2.05-1.17,4.18-2.2,6.41-2.98-2.1,1.06-4.21,2.1-6.22,3.3-2.03,1.16-3.97,2.48-5.86,3.88Z"/>
        <path class="cls-2" d="m142.53,276.76c1.2-1.52,2.79-2.71,4.45-3.71,1.69-.96,3.47-1.75,5.34-2.26-1.76.8-3.51,1.59-5.15,2.58-1.66.95-3.22,2.08-4.64,3.39Z"/>
        <path class="cls-2" d="m209.47,268.01l-.27.09v-.05c1.66-.16,3.34-.22,5.01-.27,1.68-.01,3.35-.04,5.03.08-1.67.18-3.34.23-5.02.29-1.68.02-3.35.04-5.03-.05h-.24s.24-.05.24-.05l.28-.04Z"/>
        <path class="cls-2" d="m213.89,265.19c1.34.12,2.66.34,3.98.5,1.32.21,2.64.36,3.96.63-1.35.04-2.68-.09-4.01-.26-1.32-.21-2.65-.45-3.93-.87Z"/>
        <path class="cls-2" d="m259.61,270.24c1.05-.13,2.07-.24,3.08-.47.51-.09,1.01-.23,1.5-.38.24-.07.48-.17.69-.3.2-.11.47-.32.26-.55.12.06.19.24.11.37-.06.13-.16.23-.26.33-.21.17-.45.3-.7.42-.5.21-1.01.34-1.52.47-1.04.2-2.11.29-3.16.11Z"/>
        <path class="cls-2" d="m265.11,270.74c.65-.23,1.3-.38,1.93-.6.65-.18,1.26-.43,1.91-.65-.5.49-1.15.77-1.8,1-.66.19-1.35.32-2.05.25Z"/>
        <path class="cls-2" d="m279.52,271.47c1.13-.24,2.33-.17,3.46.17.55.19,1.1.44,1.56.83.46.37.82.95.76,1.54-.1-.58-.48-1.01-.93-1.32-.45-.31-.96-.54-1.5-.7-1.06-.36-2.2-.46-3.35-.52Z"/>
        <path class="cls-2" d="m291.05,273.39c1.46-.69,3-1.15,4.56-1.54,1.57-.35,3.16-.63,4.76-.68-1.57.36-3.13.65-4.68,1.04-1.56.35-3.09.79-4.64,1.18Z"/>
        <path class="cls-2" d="m288.71,271.89c.82-.43,1.71-.68,2.6-.9.9-.17,1.81-.32,2.74-.27-.89.26-1.78.42-2.66.63-.89.17-1.77.4-2.68.54Z"/>
        <path class="cls-2" d="m301.88,264.85c1.49.46,2.96.95,4.45,1.35,1.48.44,2.99.8,4.49,1.23-1.56-.13-3.08-.47-4.59-.88-1.49-.45-2.97-.96-4.35-1.71Z"/>
        <path class="cls-2" d="m310.07,269.65c1.54.14,3.06.28,4.59.3,1.53.06,3.06,0,4.6-.03-1.51.33-3.07.42-4.61.4-1.55-.06-3.1-.23-4.58-.67Z"/>
        <path class="cls-2" d="m325.17,269.69c1.77-.23,3.55-.31,5.33-.4l2.67-.08c.88-.03,1.77-.09,2.64-.3-.82.36-1.73.49-2.62.58-.89.08-1.78.11-2.67.16-1.78.05-3.56.11-5.34.03Z"/>
        <path class="cls-2" d="m357.03,268.3l5.43-.63,5.43-.66,5.42-.7,5.42-.73c-1.78.38-3.58.72-5.38,1.01-1.8.3-3.61.54-5.42.78-1.81.21-3.63.42-5.44.57-1.82.16-3.64.27-5.46.34Z"/>
        <path class="cls-2" d="m365.7,269.35l10.7-1.76c-1.72.57-3.5.94-5.29,1.26-1.79.27-3.6.49-5.41.51Z"/>
        <path class="cls-2" d="m384.59,263.77c1.91.16,3.81.28,5.71.24,1.9,0,3.8-.13,5.71-.28-1.87.45-3.79.61-5.71.65-1.92-.01-3.85-.15-5.71-.61Z"/>
        <path class="cls-2" d="m386.71,265.63c.8.05,1.56.09,2.33.04.77-.01,1.53-.12,2.33-.19-.71.38-1.52.51-2.31.56-.8,0-1.62-.06-2.35-.41Z"/>
        <path class="cls-2" d="m392.36,267.58c1.39-.32,2.83-.36,4.25-.25.71.08,1.42.19,2.11.38.34.1.68.2,1.02.34.16.08.33.17.46.31.06.07.13.15.13.26,0,.11-.08.18-.15.23.15-.13.1-.32-.05-.41-.13-.1-.3-.16-.46-.21-.33-.1-.68-.17-1.02-.24-.69-.13-1.38-.24-2.08-.29-1.39-.15-2.8-.13-4.22-.11Z"/>
        <path class="cls-2" d="m400.65,265.83c.81-.18,1.64-.17,2.46-.09.41.07.81.12,1.22.26.2.08.39.16.57.3.08.07.17.16.19.29.03.13-.06.23-.15.28.16-.18.03-.35-.15-.42-.16-.09-.35-.14-.54-.18-.38-.07-.79-.13-1.18-.17-.79-.12-1.59-.16-2.41-.28Z"/>
        <path class="cls-2" d="m411.94,262.58c1.95-.6,3.92-1.06,5.9-1.54,1.98-.43,3.97-.88,5.98-1.18-1.95.6-3.92,1.07-5.9,1.54-1.98.43-3.97.87-5.98,1.18Z"/>
        <path class="cls-2" d="m417.66,263.19c1.43-.57,2.9-1,4.36-1.44,1.48-.4,2.95-.81,4.46-1.08-1.43.57-2.9,1-4.36,1.44-1.48.4-2.95.81-4.46,1.08Z"/>
        <path class="cls-2" d="m423.4,263.53c.91-.41,1.86-.69,2.81-.98.96-.25,1.92-.5,2.91-.62-.91.42-1.86.69-2.81.98-.96.24-1.91.5-2.91.62Z"/>
        <path class="cls-2" d="m421.02,258.58c.98-.05,1.94-.12,2.89-.31.95-.15,1.87-.42,2.8-.75-.79.61-1.76.92-2.73,1.12-.98.15-1.99.2-2.95-.05Z"/>
        <path class="cls-2" d="m442.86,263.13l10.24-1.81c-1.64.58-3.35.95-5.05,1.28-1.72.28-3.44.51-5.19.54Z"/>
        <path class="cls-2" d="m448.54,264.36c.88-.33,1.77-.51,2.67-.71.9-.16,1.8-.32,2.74-.35-.86.33-1.77.51-2.67.71-.91.16-1.82.32-2.74.35Z"/>
        <path class="cls-2" d="m524.12,247.49c1.47-.3,2.95-.58,4.43-.84l4.44-.74,4.45-.65c1.49-.21,2.98-.39,4.47-.56-1.47.3-2.95.58-4.43.84l-4.45.74-4.46.65c-1.49.21-2.98.39-4.47.56Z"/>
        <path class="cls-2" d="m519.5,250.18l5.84-.93,5.83-.96c1.95-.31,3.88-.67,5.82-1.01l5.82-1.05c-1.91.49-3.83.93-5.77,1.33-1.93.4-3.87.75-5.82,1.09-1.95.31-3.9.62-5.85.88-1.96.26-3.92.47-5.88.65Z"/>
        <path class="cls-2" d="m551.22,247.15c-.32.13-.66.2-1,.22v-.11c2.18-.55,4.39-1.01,6.6-1.46,2.22-.43,4.43-.85,6.67-1.15-2.18.58-4.39,1.05-6.6,1.51-2.21.44-4.43.87-6.66,1.21v-.11c.32,0,.66-.02.99-.11Z"/>
        <path class="cls-2" d="m560.61,247.49c1.19-.4,2.41-.66,3.62-.93,1.22-.23,2.45-.47,3.7-.57-1.19.4-2.41.66-3.62.93-1.22.23-2.45.47-3.7.57Z"/>
        <path class="cls-2" d="m563.63,241.21c1.09-.38,2.28-.41,3.43-.27,1.12.19,2.32.53,3.13,1.39-.48-.31-1-.52-1.54-.68-.54-.16-1.08-.28-1.64-.34-1.11-.17-2.23-.17-3.37-.09Z"/>
        <path class="cls-2" d="m361.54,283.47c1.22-.59,2.48-1.04,3.74-1.51,1.28-.43,2.55-.86,3.87-1.16-1.22.59-2.48,1.04-3.74,1.51-1.28.42-2.55.86-3.87,1.16Z"/>
        <path class="cls-2" d="m418.93,255.19c.67.65,1.34,1.27,2.2,1.51.84.29,1.75.36,2.68.29-.87.37-1.88.34-2.8.06-.45-.16-.89-.4-1.24-.73-.35-.33-.62-.72-.84-1.13Z"/>
        <path class="cls-2" d="m161.18,235.27c1.26.16,2.47.53,3.66.97,1.17.48,2.32,1.04,3.32,1.83-1.15-.52-2.28-1.05-3.45-1.48-1.16-.48-2.34-.86-3.52-1.31Z"/>
        <path class="cls-2" d="m154.32,235.87c1.38.23,2.71.66,4.02,1.14,1.29.52,2.58,1.08,3.75,1.84-1.31-.49-2.58-1.03-3.88-1.5-1.29-.51-2.6-.95-3.89-1.48Z"/>
        <path class="cls-2" d="m146.94,236.83c.96.1,1.88.34,2.8.57.91.27,1.83.53,2.7.93-.96-.1-1.88-.34-2.8-.57-.91-.27-1.83-.53-2.7-.93Z"/>
        <path class="cls-2" d="m143.8,237.59c.06-.07-.2,0-.12,0,.03.02.15.04.24.05l.57.1c.38.07.76.18,1.14.26.74.22,1.49.44,2.2.79-.79-.05-1.54-.25-2.29-.43-.37-.12-.74-.21-1.11-.34l-.55-.2c-.09-.05-.19-.05-.28-.18-.03-.12.11-.14.14-.12.03,0,.05.01.08.03.04,0,.03.07,0,.06Z"/>
        <path class="cls-2" d="m138.57,238.16c1.05.06,2.07.3,3.08.6.99.33,1.98.72,2.86,1.3-1.01-.3-1.97-.66-2.97-.95-.98-.33-1.98-.59-2.97-.95Z"/>
        <path class="cls-2" d="m134.89,239.78c.82.22,1.58.52,2.37.78.77.3,1.56.54,2.33.9-.85-.06-1.66-.29-2.46-.55-.78-.3-1.56-.63-2.25-1.13Z"/>
        <path class="cls-2" d="m132.74,242.06c.83.18,1.62.46,2.42.69.79.28,1.59.52,2.36.87-.85-.06-1.67-.28-2.48-.52-.8-.28-1.59-.58-2.31-1.05Z"/>
        <path class="cls-2" d="m132.83,245.3c.89.25,1.73.56,2.6.82.86.3,1.73.53,2.59.86-.93-.03-1.82-.25-2.7-.51-.87-.3-1.73-.64-2.49-1.17Z"/>
        <path class="cls-2" d="m133.36,247.63c.78.16,1.52.41,2.27.61.74.25,1.49.45,2.23.77-.8-.02-1.57-.2-2.34-.41-.75-.25-1.5-.53-2.17-.97Z"/>
        <path class="cls-2" d="m142.25,256.58c.91.37,1.76.8,2.64,1.17.87.42,1.75.78,2.62,1.24-.96-.17-1.88-.52-2.77-.9-.87-.42-1.74-.88-2.49-1.51Z"/>
        <path class="cls-2" d="m143.66,253.71c.7.26,1.35.57,2.02.83.66.3,1.34.54,2,.89-.75-.05-1.46-.28-2.15-.55-.67-.31-1.34-.65-1.88-1.18Z"/>
        <path class="cls-2" d="m141.13,244.08c.76.07,1.47.27,2.18.47.7.23,1.4.46,2.07.82-.75-.06-1.46-.27-2.18-.47-.7-.24-1.41-.46-2.07-.82Z"/>
        <path class="cls-2" d="m143.3,242.81c1.01.2,1.97.54,2.94.87.95.37,1.91.73,2.81,1.22-1.02-.21-1.97-.55-2.94-.87-.95-.37-1.9-.73-2.81-1.22Z"/>
        <path class="cls-2" d="m148.55,241.56c.77.09,1.49.33,2.21.58.7.29,1.4.6,2.02,1.06-.75-.18-1.44-.46-2.15-.72-.69-.29-1.4-.55-2.07-.93Z"/>
        <path class="cls-2" d="m152.86,240.43c.94.07,1.85.33,2.74.64.87.35,1.73.75,2.47,1.35-.88-.33-1.72-.7-2.6-1-.86-.34-1.74-.62-2.61-.99Z"/>
        <path class="cls-2" d="m159.62,240.09c.68.1,1.3.37,1.91.67.59.34,1.16.71,1.6,1.24-.62-.28-1.18-.62-1.78-.91-.57-.33-1.17-.61-1.74-.99Z"/>
        <path class="cls-2" d="m165.49,239.36c.83.1,1.62.39,2.39.72.75.37,1.48.78,2.08,1.38-.77-.34-1.48-.72-2.24-1.04-.73-.36-1.49-.66-2.24-1.05Z"/>
        <path class="cls-2" d="m172.02,242.49c.66.07,1.27.27,1.88.46.6.23,1.2.45,1.76.81-.66-.07-1.27-.27-1.88-.46-.6-.23-1.2-.45-1.76-.81Z"/>
        <path class="cls-2" d="m172.11,244.43c1.03.03,2.03.25,3.02.5.98.29,1.95.63,2.83,1.15-1-.24-1.95-.55-2.93-.8-.97-.29-1.95-.52-2.92-.86Z"/>
        <path class="cls-2" d="m174.44,247.05c.96.02,1.89.2,2.82.4.92.24,1.83.5,2.69.93-.95-.13-1.85-.37-2.77-.57-.91-.24-1.83-.44-2.73-.76Z"/>
        <path class="cls-2" d="m182.48,249.28c-.26-.03-.52-.07-.77-.11l.04-.15c.53.12,1.06.24,1.58.39.52.15,1.04.28,1.56.46,1.03.33,2.06.68,3.05,1.12-1.07-.19-2.12-.48-3.16-.78-.52-.14-1.03-.33-1.55-.49-.51-.17-1.02-.36-1.53-.56l.04-.15c.25.09.49.17.74.26Z"/>
        <path class="cls-2" d="m180.03,251.48c1.04.18,2.03.49,3.02.79.98.34,1.96.67,2.9,1.14-1.03-.17-2.02-.49-3.02-.79-.98-.34-1.97-.67-2.9-1.14Z"/>
        <path class="cls-2" d="m179.76,253.63c-.39.02-.81-.02-1.17-.25l-.49-.32.58.13c.99.22,1.96.48,2.93.77.97.29,1.93.61,2.86,1-1.01-.17-1.99-.4-2.96-.67-.97-.26-1.93-.56-2.88-.9l.09-.19c.28.23.66.35,1.05.42Z"/>
        <path class="cls-2" d="m178.59,255.53c1.16.12,2.28.37,3.4.61,1.11.28,2.22.56,3.31.97-1.15-.11-2.27-.37-3.4-.61-1.12-.29-2.24-.56-3.31-.97Z"/>
        <path class="cls-2" d="m189.83,252.74c1.41.46,2.79.98,4.2,1.41.7.24,1.4.45,2.11.67.69.23,1.45.41,2.05.86-.67-.31-1.41-.41-2.13-.58-.72-.16-1.44-.38-2.15-.59-1.41-.47-2.8-1.01-4.09-1.76Z"/>
        <path class="cls-2" d="m191.07,255.81c-.16-.03-.33-.01-.49.02v-.1c1.21.21,2.4.51,3.58.82.59.17,1.18.32,1.76.52l.87.29.43.16c.07.03.15.04.22.11.06.16-.2.1-.13.05-.04.06.16.01.09-.01-.05-.03-.13-.04-.21-.05l-.45-.08-.9-.19c-.6-.12-1.19-.29-1.78-.43-1.18-.32-2.35-.65-3.51-1.07l-.23-.08h.23c.17-.02.35,0,.5.07Z"/>
        <path class="cls-2" d="m190.99,258.14c1.21.15,2.38.44,3.55.71,1.16.32,2.33.63,3.46,1.07-1.21-.15-2.38-.44-3.55-.71-1.16-.32-2.33-.63-3.46-1.07Z"/>
        <path class="cls-2" d="m191.55,260.54c.75-.06,1.48.04,2.21.17.72.17,1.44.36,2.09.73-.75-.07-1.45-.24-2.17-.37-.71-.17-1.43-.29-2.14-.53Z"/>
        <path class="cls-2" d="m204.39,256.9c1.34.17,2.65.48,3.97.78,1.31.34,2.61.67,3.88,1.14-1.35-.17-2.66-.48-3.97-.78-1.3-.34-2.61-.67-3.88-1.14Z"/>
        <path class="cls-2" d="m203.98,258.01c1.07.2,2.09.53,3.11.85,1.01.36,2.02.71,2.99,1.2-1.06-.19-2.08-.53-3.11-.85-1.01-.36-2.03-.71-2.99-1.2Z"/>
        <path class="cls-2" d="m202.96,259.75c1.05.23,2.04.59,3.03.93.98.39,1.96.77,2.9,1.28-1.04-.22-2.03-.58-3.03-.93-.98-.39-1.97-.77-2.9-1.28Z"/>
        <path class="cls-2" d="m201.69,261.74c.86.14,1.66.41,2.48.67.8.3,1.6.59,2.35,1.02-.86-.14-1.66-.41-2.48-.67-.8-.3-1.6-.59-2.35-1.02Z"/>
        <path class="cls-2" d="m200.95,263.79c.6.11,1.14.32,1.71.5.55.22,1.1.41,1.63.71-.61-.01-1.19-.18-1.76-.36-.55-.22-1.11-.46-1.58-.85Z"/>
        <path class="cls-2" d="m198.19,265.31c.78.07,1.51.28,2.25.48.73.24,1.46.47,2.14.83-.78-.07-1.51-.28-2.25-.48-.73-.24-1.46-.47-2.14-.83Z"/>
        <path class="cls-2" d="m176.61,220.26c-1.38-.04-2.74-.14-4.11-.16-1.37-.06-2.73-.04-4.11-.09,1.36-.28,2.74-.33,4.12-.31,1.38.06,2.76.19,4.1.56Z"/>
        <path class="cls-2" d="m182.76,225.74c-1.57-.28-3.15-.43-4.73-.52-1.58-.08-3.17-.1-4.75-.05-1.58.03-3.17.13-4.75.24l-4.76.32c1.57-.24,3.15-.46,4.73-.63,1.58-.17,3.17-.27,4.77-.33,1.59-.03,3.19,0,4.78.14,1.59.14,3.17.4,4.7.82Z"/>
        <path class="cls-2" d="m185.3,228.19c-1.36.19-2.71.23-4.06.29-1.35,0-2.7.03-4.07-.11,1.34-.2,2.7-.23,4.06-.29,1.36,0,2.71-.02,4.07.11Z"/>
        <path class="cls-2" d="m188.74,230.65c-2.25,0-4.49-.04-6.74.02-2.24.02-4.48.14-6.73.21,2.22-.4,4.48-.54,6.73-.61,2.25-.01,4.51.05,6.74.38Z"/>
        <path class="cls-2" d="m203.57,240.23c-1.41-.02-2.83.03-4.23.13-1.4.1-2.81.25-4.19.48-1.39.2-2.77.5-4.14.83-1.37.34-2.72.74-4.06,1.21,1.28-.6,2.62-1.09,3.98-1.48,1.36-.4,2.75-.69,4.15-.92,1.4-.21,2.82-.36,4.24-.4,1.42-.05,2.84,0,4.25.15Z"/>
        <path class="cls-2" d="m210.96,245.26c-1.2.14-2.39.19-3.58.32-1.19.08-2.38.23-3.58.3,1.15-.37,2.35-.55,3.55-.67,1.2-.08,2.41-.12,3.61.05Z"/>
        <path class="cls-2" d="m219.5,250.11c-1.92.31-3.85.45-5.76.71-1.92.22-3.81.55-5.67,1.13,1.75-.87,3.7-1.24,5.62-1.5,1.93-.21,3.87-.33,5.81-.34Z"/>
        <path class="cls-2" d="m224.32,252.72c-1.02.17-2.02.25-3.03.39-1.01.1-2.01.25-3.04.32.96-.37,1.98-.55,2.99-.69,1.02-.1,2.05-.16,3.07-.02Z"/>
        <path class="cls-2" d="m194.65,234.08c.23-.59.65-1.1,1.12-1.53.48-.43,1.03-.76,1.59-1.06,1.15-.55,2.38-.91,3.63-1.01-1.18.42-2.36.8-3.45,1.37-1.1.54-2.14,1.22-2.89,2.23Z"/>
        <path class="cls-2" d="m204.25,239.71s.11,0,.08.06c-.02.04-.06.07-.11.08-.08.01-.2-.01-.23-.14.02-.21.1-.31.16-.47.15-.28.34-.53.54-.77.42-.48.94-.84,1.47-1.17,1.09-.61,2.28-1.02,3.51-1.15-1.15.45-2.28.87-3.31,1.49-.52.29-1.01.64-1.45,1.04-.22.2-.42.42-.59.66-.08.11-.2.26-.22.36-.01.04.06.09.12.09.06.02.15-.08.03-.07Z"/>
        <path class="cls-2" d="m215.45,246.78c.63-1.13,1.44-2.17,2.43-3.04,1-.84,2.18-1.49,3.45-1.79-1.16.59-2.26,1.22-3.21,2.07-.98.81-1.79,1.81-2.67,2.76Z"/>
        <path class="cls-2" d="m217.64,248.58c.09-.8.68-1.46,1.29-1.94.64-.46,1.36-.81,2.14-.94-.66.42-1.33.77-1.92,1.24-.61.44-1.13.96-1.51,1.64Z"/>
        <path class="cls-2" d="m187.72,228.89c-.07-.04-.15.05-.11.08.03.02.12.01.18-.01.13-.05.17-.16.23-.31.13-.28.29-.54.45-.8.34-.51.77-.96,1.2-1.39.92-.81,1.95-1.49,3.09-1.92-.98.72-1.96,1.39-2.82,2.22-.45.39-.85.83-1.23,1.28-.19.23-.37.46-.53.71-.07.11-.19.3-.38.32-.08,0-.17.03-.25-.05-.05-.13.11-.17.16-.11Z"/>
        <path class="cls-2" d="m181.94,224.36c.59-1.34,1.81-2.29,3.05-3.01,1.28-.68,2.65-1.17,4.08-1.39-1.33.53-2.66,1.03-3.88,1.74-1.24.67-2.38,1.51-3.24,2.66Z"/>
        <path class="cls-2" d="m175.3,218.45c.35-1.22,1.28-2.19,2.27-2.94,1.03-.72,2.17-1.29,3.38-1.59-1.08.61-2.17,1.18-3.14,1.91-.99.7-1.86,1.56-2.51,2.62Z"/>
        <path class="cls-2" d="m177.11,220.02c.37-.64.95-1.12,1.54-1.54.62-.38,1.28-.72,2-.86-.59.45-1.2.79-1.78,1.19-.6.37-1.16.8-1.76,1.21Z"/>
        <path class="cls-2" d="m227.61,253.52c.57-.51,1.22-.9,1.86-1.3.66-.36,1.32-.74,2.04-.98-.57.51-1.22.9-1.86,1.3-.66.36-1.32.73-2.04.98Z"/>
        <path class="cls-2" d="m192.71,233.47c-1.73.12-3.45.21-5.15.45-1.71.2-3.39.53-5.09.91,1.6-.69,3.32-1.06,5.04-1.3,1.73-.2,3.48-.27,5.21-.05Z"/>
        <path class="cls-2" d="m195.31,295.82c.43-.39.72-.87,1.05-1.36.34-.48.8-.88,1.27-1.23.98-.65,2.08-1.11,3.23-1.29-1.06.47-2.11.93-3.02,1.59-.47.31-.89.68-1.26,1.1-.37.43-.75.91-1.28,1.18Z"/>
        <path class="cls-2" d="m197.93,296.16c.48-.62,1.14-1.05,1.81-1.43.7-.34,1.42-.62,2.19-.71-.67.38-1.37.68-2.02,1.04-.68.33-1.31.72-1.98,1.1Z"/>
        <path class="cls-2" d="m199.5,297.46c.88-.28,1.6-.8,2.48-1.16.88-.3,1.83-.45,2.75-.31-.91.17-1.79.33-2.62.65-.42.14-.82.35-1.25.52-.43.17-.89.3-1.36.29Z"/>
        <path class="cls-2" d="m199.84,301.12c1.25-.3,2.51-.52,3.75-.8l1.87-.4c.62-.14,1.24-.27,1.79-.61-.46.47-1.11.68-1.72.88-.61.19-1.24.34-1.87.49-1.26.24-2.53.44-3.82.44Z"/>
        <path class="cls-2" d="m202.13,302.43c.9-.21,1.8-.32,2.7-.49.9-.13,1.79-.32,2.71-.43-.84.41-1.74.62-2.65.8-.91.13-1.84.23-2.76.13Z"/>
        <path class="cls-2" d="m206.23,303.34c.47-.21.94-.29,1.41-.4.48-.07.95-.17,1.46-.16-.43.28-.91.41-1.39.52-.49.07-.98.14-1.48.04Z"/>
        <path class="cls-2" d="m213.26,301.62c1.46-.26,2.92-.49,4.35-.83,1.44-.3,2.86-.71,4.29-1.11-1.32.69-2.76,1.13-4.21,1.48-1.46.3-2.94.51-4.43.47Z"/>
        <path class="cls-2" d="m212.94,299.55c.39-.24.81-.34,1.22-.46.42-.07.84-.15,1.3-.1-.38.24-.81.34-1.22.46-.43.07-.86.15-1.3.1Z"/>
        <path class="cls-2" d="m219.05,298.43c.44-.3.93-.45,1.41-.62.49-.13.98-.27,1.51-.27-.44.3-.93.45-1.41.62-.49.13-.98.27-1.51.27Z"/>
        <path class="cls-2" d="m216.68,297.4c.74-.33,1.49-.54,2.25-.78.76-.2,1.51-.43,2.31-.55-.69.41-1.45.67-2.21.91-.77.2-1.54.39-2.35.42Z"/>
        <path class="cls-2" d="m226.75,296.97c.93-.44,1.91-.75,2.87-1.07.98-.28,1.96-.56,2.98-.71-.93.44-1.9.75-2.87,1.06-.98.28-1.96.56-2.98.71Z"/>
        <path class="cls-2" d="m226.52,294.91c1.54-.47,3.08-.87,4.6-1.36,1.53-.45,3.03-1,4.56-1.5-1.4.79-2.92,1.36-4.45,1.86-1.54.46-3.11.84-4.71,1.01Z"/>
        <path class="cls-2" d="m226.75,300.27c.94-.33,1.88-.58,2.8-.9.93-.29,1.83-.65,2.77-.97-.8.6-1.72.99-2.65,1.32-.95.29-1.92.52-2.91.55Z"/>
        <path class="cls-2" d="m231.26,300.5c.87-.41,1.76-.72,2.63-1.09l2.64-1.07c-.75.61-1.62,1.03-2.5,1.41-.9.34-1.81.64-2.77.75Z"/>
        <path class="cls-2" d="m234.81,300.49c.14-.23.34-.34.54-.45.21-.08.42-.16.69-.12-.14.23-.34.34-.54.45-.21.08-.42.16-.69.12Z"/>
        <path class="cls-2" d="m218.74,288.39c.93-.51,1.93-.84,2.93-1.15,1.02-.26,2.04-.5,3.1-.56-.99.36-2,.62-3,.92-1.01.26-2,.57-3.03.79Z"/>
        <path class="cls-2" d="m216.42,287c1.52-.9,3.2-1.51,4.89-2,1.71-.45,3.45-.78,5.22-.84-1.73.36-3.44.71-5.12,1.19-1.69.45-3.34,1.02-4.99,1.65Z"/>
        <path class="cls-2" d="m218.75,283.42c.95-.44,1.96-.72,2.98-.98,1.02-.21,2.05-.41,3.1-.42-1,.32-2.01.53-3.02.78-1.02.21-2.02.46-3.06.61Z"/>
        <path class="cls-2" d="m220.39,281.51c.38-.35.86-.54,1.34-.71.49-.12.99-.22,1.51-.14-.47.22-.94.34-1.4.49-.48.12-.93.27-1.44.35Z"/>
        <path class="cls-2" d="m203.88,288.58l-.12.22-.04-.04c.96-.88,2.1-1.54,3.28-2.08,1.19-.51,2.44-.92,3.72-1.11-1.21.47-2.41.91-3.57,1.45-1.17.52-2.3,1.12-3.4,1.79l-.15.09.11-.13.16-.19Z"/>
        <path class="cls-2" d="m205.56,289.66c.62-.65,1.42-1.08,2.22-1.44.83-.32,1.69-.57,2.58-.61-.82.34-1.64.6-2.43.95-.81.31-1.57.7-2.36,1.1Z"/>
        <path class="cls-2" d="m234.96,278.41c-.35.09-.72.16-1.08.24l-.02-.17c.63-.19,1.27-.38,1.92-.52.65-.14,1.29-.29,1.95-.38,1.31-.21,2.63-.34,3.95-.33l-3.9.68-3.88.72-.02-.17c.36-.02.72-.05,1.09-.06Z"/>
        <path class="cls-2" d="m237.53,279.78c.89-.39,1.82-.62,2.76-.84.94-.17,1.89-.33,2.86-.32-.92.29-1.86.47-2.79.68-.94.17-1.87.38-2.83.48Z"/>
        <path class="cls-2" d="m248.79,277.5c1.23-.49,2.53-.75,3.84-.93,1.31-.14,2.64-.21,3.95-.03-1.31.13-2.61.22-3.9.4-1.3.14-2.58.37-3.88.56Z"/>
        <path class="cls-2" d="m250.95,278.8c.55-.27,1.13-.4,1.71-.54.59-.1,1.17-.21,1.79-.18-.55.27-1.13.4-1.71.54-.59.1-1.17.21-1.79.18Z"/>
        <path class="cls-2" d="m260.66,277.54c1.05-.26,2.11-.35,3.18-.41,1.07-.02,2.14-.03,3.2.14-1.07.14-2.13.16-3.19.23-1.06.02-2.12.09-3.19.04Z"/>
        <path class="cls-2" d="m262.98,279.52c.87-.25,1.77-.36,2.66-.48.9-.08,1.8-.17,2.71-.11-.88.25-1.77.36-2.66.48-.9.08-1.79.17-2.71.11Z"/>
        <path class="cls-2" d="m267.8,283.19c.64-.41,1.31-.7,1.96-1.04.67-.3,1.32-.64,2.03-.9-.55.52-1.2.89-1.86,1.24-.68.31-1.37.59-2.12.71Z"/>
        <path class="cls-2" d="m269.91,284.38c.45-.38.94-.66,1.4-.99.48-.29.92-.63,1.43-.93-.29.52-.76.9-1.23,1.24-.5.3-1.02.57-1.61.68Z"/>
        <path class="cls-2" d="m239.86,293.37c1.21-.51,2.45-.91,3.67-1.37,1.23-.42,2.44-.89,3.7-1.29-1.13.67-2.35,1.17-3.57,1.63-1.24.42-2.49.81-3.79,1.02Z"/>
        <path class="cls-2" d="m242.59,290.89c.73-.36,1.47-.62,2.2-.93.74-.28,1.45-.6,2.22-.87-.61.53-1.34.89-2.08,1.21-.75.28-1.52.52-2.33.59Z"/>
        <path class="cls-2" d="m251.63,289.5c1.21-.51,2.42-.95,3.6-1.49,1.2-.5,2.34-1.09,3.52-1.67-1.01.84-2.18,1.46-3.37,2.01-1.21.5-2.45.93-3.75,1.15Z"/>
        <path class="cls-2" d="m252.78,287.79c.57-.31,1.15-.51,1.72-.76.59-.21,1.15-.46,1.77-.64-.47.45-1.05.73-1.63.99-.6.21-1.21.4-1.86.42Z"/>
        <path class="cls-2" d="m261.72,284.99c.45-.36.94-.61,1.41-.9.5-.25.97-.52,1.52-.7-.37.44-.86.74-1.34,1.03-.5.25-1.02.49-1.59.57Z"/>
        <path class="cls-2" d="m266.26,281.94c.44-.31.9-.51,1.35-.75.47-.2.91-.45,1.41-.62-.33.43-.79.7-1.25.95-.48.21-.98.4-1.51.42Z"/>
        <path class="cls-2" d="m273.21,229.08v-.09s-.02-.03-.02-.03h.04c.53.17,1.01.5,1.39.91.36.42.66.96.63,1.53-.27-.49-.54-.91-.91-1.28-.34-.39-.75-.72-1.15-1.1l.04-.02-.03.09Z"/>
        <path class="cls-2" d="m264.64,215.05c.61.11,1.17.39,1.68.74.48.38.95.82,1.17,1.41-.47-.4-.9-.78-1.39-1.11-.46-.36-.97-.65-1.46-1.04Z"/>
        <path class="cls-2" d="m259.38,214.89c.61.15,1.14.48,1.63.85.47.4.91.86,1.14,1.45-.48-.4-.9-.8-1.37-1.16-.45-.39-.94-.72-1.4-1.14Z"/>
        <path class="cls-2" d="m254.05,214.63c.71,0,1.4.21,2.04.52.61.34,1.22.84,1.43,1.54-.47-.52-1-.91-1.6-1.21-.58-.33-1.22-.55-1.87-.85Z"/>
        <path class="cls-2" d="m250.35,215.81c.51.09.95.36,1.36.66.38.33.74.72.9,1.22-.41-.31-.74-.64-1.13-.93-.36-.32-.76-.58-1.13-.95Z"/>
        <path class="cls-2" d="m246.97,216.87c.29.59.67,1.06,1.15,1.45.46.42,1,.72,1.54,1.11-.65-.1-1.26-.41-1.78-.82-.49-.44-.92-1.05-.91-1.73Z"/>
        <path class="cls-2" d="m243.87,218.17c.14,0,.03-.11-.03-.07-.08.04-.1.08-.07.13l.31.44.62.91c.39.62.84,1.18,1.3,1.78-.66-.37-1.17-.96-1.61-1.57-.2-.32-.39-.64-.56-.98-.08-.18-.16-.31-.24-.53-.04-.15.12-.28.22-.27.06,0,.13.02.15.09.03.08-.08.11-.11.08Z"/>
        <path class="cls-2" d="m240.66,220.37c.24.8.63,1.5,1.19,2.08.53.61,1.19,1.08,1.85,1.6-.81-.25-1.53-.73-2.13-1.35-.56-.64-.99-1.48-.92-2.33Z"/>
        <path class="cls-2" d="m239.11,223.45c.41.25.7.58,1.01.91.27.36.55.71.72,1.15-.41-.24-.7-.58-1.01-.91-.27-.36-.55-.71-.72-1.15Z"/>
        <path class="cls-2" d="m238.52,226.54c.33.23.55.53.77.83.19.32.39.64.47,1.03-.34-.22-.55-.53-.77-.83-.19-.32-.39-.64-.47-1.03Z"/>
        <path class="cls-2" d="m242.61,230.69c.37.62.91,1.03,1.52,1.35.59.35,1.25.56,1.92.85-.73.02-1.44-.19-2.1-.52-.31-.19-.62-.4-.87-.69-.24-.28-.43-.62-.47-.99Z"/>
        <path class="cls-2" d="m245.32,228.59c.39.7.9,1.26,1.53,1.71.6.48,1.29.82,1.98,1.23-.8-.12-1.54-.47-2.21-.94-.63-.5-1.21-1.18-1.3-2Z"/>
        <path class="cls-2" d="m247.63,226.06c.46.77.98,1.46,1.63,2.05.62.62,1.34,1.12,2.05,1.67-.86-.29-1.63-.79-2.3-1.41-.64-.64-1.2-1.42-1.37-2.32Z"/>
        <path class="cls-2" d="m252.37,248.39c.62.64,1.29,1.18,2.04,1.61.73.46,1.53.8,2.33,1.21-.89-.11-1.74-.45-2.52-.9-.76-.48-1.48-1.1-1.85-1.93Z"/>
        <path class="cls-2" d="m250.45,233.93c.44.23.8.49,1.21.72.38.26.79.48,1.16.81-.5-.04-.94-.25-1.36-.49-.4-.27-.79-.59-1.01-1.03Z"/>
        <path class="cls-2" d="m251.75,224.85c.65.39,1.24.82,1.87,1.2.61.42,1.24.79,1.85,1.26-.74-.19-1.41-.55-2.05-.95-.62-.43-1.22-.9-1.67-1.51Z"/>
        <path class="cls-2" d="m276.5,232.54c.46.23.8.59,1.13.96.29.4.57.81.7,1.31-.38-.33-.67-.72-.98-1.08-.28-.39-.6-.75-.84-1.2Z"/>
        <path class="cls-2" d="m272.99,233.11c.69.06,1.35.33,1.93.74.27.23.53.48.71.79.18.31.29.67.26,1.01-.25-.64-.67-1.13-1.2-1.51-.51-.41-1.1-.69-1.7-1.04Z"/>
        <path class="cls-2" d="m265.52,220.15c.36.12.62.34.89.55.24.25.49.48.64.83-.36-.12-.62-.34-.89-.55-.24-.25-.49-.48-.64-.83Z"/>
        <path class="cls-2" d="m281.07,236.1c.8.3,1.52.77,2.21,1.27.66.54,1.3,1.12,1.77,1.84-.69-.5-1.32-1.05-1.99-1.54-.65-.53-1.34-1-1.98-1.56Z"/>
        <path class="cls-2" d="m279.85,237.65c-.26,0-.56-.05-.75-.32l-.08-.11.16-.03c.46-.07.97.13,1.29.45.32.29.66.57.96.88.63.6,1.24,1.22,1.79,1.91-.72-.5-1.38-1.07-2.03-1.65-.33-.28-.63-.6-.95-.9-.29-.29-.63-.51-1.05-.51l.08-.13c.07.2.34.32.58.4Z"/>
        <path class="cls-2" d="m277.4,238.63c.52.02.99.23,1.43.49.41.29.81.67.94,1.18-.39-.33-.73-.63-1.14-.87-.38-.28-.81-.49-1.22-.8Z"/>
        <path class="cls-2" d="m287.04,240.73c.83.26,1.59.71,2.28,1.24.67.56,1.29,1.2,1.66,1.99-.62-.61-1.22-1.19-1.89-1.7-.65-.54-1.36-1-2.05-1.53Z"/>
        <path class="cls-2" d="m286.02,242.42c.58.24,1.06.63,1.52,1.03.43.43.86.89,1.13,1.45-.51-.36-.93-.79-1.38-1.18-.43-.42-.88-.81-1.27-1.3Z"/>
        <path class="cls-2" d="m283.93,243.72c.45.07.82.31,1.17.56.32.29.64.61.77,1.04-.38-.24-.67-.51-1.01-.76-.31-.28-.64-.51-.94-.85Z"/>
        <path class="cls-2" d="m300.35,247.73c.51.33.86.85,1.07,1.42.18.58.2,1.23-.06,1.78-.05-.59-.1-1.14-.29-1.66-.16-.53-.44-1.01-.72-1.54Z"/>
        <path class="cls-2" d="m298.5,248.48c.26.24.36.57.42.9.02.33,0,.68-.19.97-.11-.33-.12-.63-.18-.93-.02-.31-.08-.6-.05-.94Z"/>
        <path class="cls-2" d="m293.13,247.2c.53.38.93.88,1.31,1.38.35.53.69,1.07.87,1.7-.45-.47-.79-.99-1.17-1.48-.34-.52-.72-1.02-1.01-1.6Z"/>
        <path class="cls-2" d="m290.13,248.24c.42.11.75.37,1.05.66.27.32.52.67.57,1.1-.32-.28-.56-.58-.84-.85-.25-.3-.54-.56-.78-.91Z"/>
        <path class="cls-2" d="m287.93,248.75c.36.28.59.63.84.98.21.37.43.73.53,1.18-.36-.28-.59-.63-.84-.98-.21-.37-.43-.73-.53-1.18Z"/>
        <path class="cls-2" d="m286.15,250.45c.34.24.57.55.8.86.2.33.4.66.49,1.07-.34-.24-.57-.55-.8-.86-.2-.33-.4-.66-.49-1.07Z"/>
        <path class="cls-2" d="m298.89,252.69c.21.5.15,1.06.01,1.56-.18.5-.45.97-.86,1.3.16-.5.38-.94.51-1.41.17-.46.24-.93.34-1.45Z"/>
        <path class="cls-2" d="m295.89,253.11c.12.44.1.87.09,1.31-.05.43-.09.86-.28,1.28-.12-.44-.1-.87-.09-1.31.05-.43.1-.86.28-1.28Z"/>
        <path class="cls-2" d="m291.59,252.36c.42.16.74.46,1.04.77.26.34.51.71.57,1.16-.33-.3-.57-.62-.86-.92-.25-.33-.53-.62-.75-1.01Z"/>
        <path class="cls-2" d="m292.12,255.43c.2.38.44.63.76.85.29.24.65.4.99.67-.44.03-.85-.12-1.21-.37-.17-.14-.33-.3-.44-.5-.1-.2-.16-.43-.1-.65Z"/>
        <path class="cls-2" d="m288.57,256.19c.39.34.72.67,1.11.96.36.32.77.57,1.15.93-.52-.08-.97-.34-1.38-.64-.39-.33-.75-.73-.88-1.24Z"/>
        <path class="cls-2" d="m284.32,256.8c.66.46,1.32.86,2.04,1.19.7.36,1.44.61,2.17.95-.81-.04-1.59-.29-2.33-.62-.72-.37-1.42-.83-1.88-1.52Z"/>
        <path class="cls-2" d="m280.62,257.57c.86.36,1.68.74,2.55,1.04.85.35,1.72.62,2.58.98-.93-.06-1.83-.32-2.71-.63-.86-.35-1.71-.77-2.41-1.39Z"/>
        <path class="cls-2" d="m401.84,253.49c.77.09,1.51.26,2.26.38.74.16,1.49.27,2.24.48-.78.09-1.55,0-2.31-.12-.75-.16-1.51-.36-2.19-.74Z"/>
        <path class="cls-2" d="m406.07,251.76c.74.12,1.44.35,2.15.54.7.23,1.41.43,2.09.75-.76-.02-1.48-.2-2.2-.4-.7-.24-1.41-.49-2.05-.89Z"/>
        <path class="cls-2" d="m409.93,249.9c.3.42.6.77.97,1.08.35.33.75.59,1.14.94-.52-.07-.98-.34-1.38-.67-.37-.36-.71-.82-.73-1.36Z"/>
        <path class="cls-2" d="m412.26,248.69c.27-.17.66-.11.93.09.27.2.45.41.68.62.4.44.82.88,1.13,1.42-.53-.32-.96-.74-1.39-1.16l-.59-.66c-.19-.19-.44-.32-.75-.31Z"/>
        <path class="cls-2" d="m415.67,246.98c.47.16.83.5,1.13.89.26.41.46.9.39,1.39-.23-.43-.41-.82-.69-1.18-.24-.38-.55-.7-.83-1.1Z"/>
        <path class="cls-2" d="m418.55,244.99c.2.3.31.59.46.86.12.3.27.56.36.92-.33-.16-.53-.46-.69-.76-.13-.32-.22-.67-.13-1.02Z"/>
        <path class="cls-2" d="m412.07,235.6c.96.57,1.81,1.29,2.65,2.02.8.76,1.59,1.55,2.24,2.46-.87-.7-1.66-1.46-2.49-2.19-.8-.76-1.63-1.48-2.4-2.29Z"/>
        <path class="cls-2" d="m410.03,237.44c.89.42,1.67,1.01,2.4,1.66.7.68,1.36,1.42,1.8,2.3-.69-.69-1.33-1.39-2.05-2.02-.69-.67-1.43-1.26-2.15-1.93Z"/>
        <path class="cls-2" d="m409.24,240.88c.67.11,1.29.38,1.89.68.58.33,1.15.7,1.6,1.21-.63-.26-1.19-.59-1.77-.89-.57-.33-1.16-.61-1.71-1.01Z"/>
        <path class="cls-2" d="m407.9,243.09c.41.05.76.26,1.08.52.28.28.55.64.57,1.06-.3-.28-.53-.55-.82-.78-.26-.26-.56-.48-.83-.79Z"/>
        <path class="cls-2" d="m402.9,231.48c1.08.17,2.11.53,3.12.93.99.44,1.98.92,2.85,1.58-1.02-.39-1.99-.84-2.99-1.24-.98-.43-1.99-.8-2.98-1.27Z"/>
        <path class="cls-2" d="m387.11,226.07c1.77-.02,3.54.26,5.25.74,1.69.53,3.37,1.27,4.67,2.49-1.48-.97-3.09-1.65-4.77-2.14-1.67-.52-3.4-.81-5.15-1.1Z"/>
        <path class="cls-2" d="m390.38,229.2c.9.03,1.77.26,2.61.57.82.35,1.64.78,2.26,1.44-.8-.41-1.57-.79-2.39-1.1-.81-.34-1.64-.59-2.48-.92Z"/>
        <path class="cls-2" d="m390.27,231.68c.51-.1,1.02,0,1.51.13.47.18.96.43,1.24.88-.47-.2-.89-.39-1.36-.53-.45-.17-.92-.28-1.39-.48Z"/>
        <path class="cls-2" d="m375.63,224.39c1.38,0,2.75.22,4.09.53,1.33.34,2.66.77,3.86,1.45-1.32-.39-2.62-.79-3.95-1.09-1.32-.34-2.66-.58-4.01-.89Z"/>
        <path class="cls-2" d="m374.93,225.61c.92,0,1.82.17,2.71.38.88.26,1.75.56,2.53,1.06-.89-.21-1.75-.49-2.62-.7-.87-.26-1.74-.45-2.62-.74Z"/>
        <path class="cls-2" d="m368.26,224.33c.79-.08,1.57.02,2.34.16.76.18,1.52.41,2.19.84-.78-.13-1.51-.33-2.27-.47-.75-.18-1.5-.3-2.26-.52Z"/>
        <path class="cls-2" d="m365.39,225.29c.71.04,1.4.22,2.09.39.68.21,1.36.41,1.99.74-.73-.04-1.41-.22-2.09-.39-.67-.21-1.34-.4-1.99-.74Z"/>
        <path class="cls-2" d="m362.3,226.68c.84.27,1.63.6,2.45.88.81.31,1.63.56,2.44.91-.88-.05-1.73-.29-2.57-.57-.82-.32-1.63-.68-2.33-1.22Z"/>
        <path class="cls-2" d="m360.66,228.34c.55.3,1.05.61,1.59.88.52.3,1.07.54,1.6.88-.63-.05-1.22-.28-1.78-.55-.54-.31-1.07-.68-1.42-1.2Z"/>
        <path class="cls-2" d="m359.37,230.25c.46.58,1,1.02,1.62,1.37.6.38,1.26.64,1.92.98-.74-.04-1.46-.3-2.11-.66-.62-.39-1.23-.95-1.43-1.69Z"/>
        <path class="cls-2" d="m358.63,232.29c.32.2.56.39.85.56.27.2.56.35.84.61-.38.03-.72-.12-1.04-.3-.29-.21-.58-.49-.65-.87Z"/>
        <path class="cls-2" d="m372.91,227.22c.81.03,1.58.26,2.34.55.73.32,1.46.72,2.01,1.31-.73-.34-1.42-.69-2.15-.96-.72-.32-1.46-.56-2.19-.89Z"/>
        <path class="cls-2" d="m365.16,232.15c.89.34,1.73.75,2.59,1.12.85.41,1.71.76,2.55,1.22-.94-.17-1.83-.51-2.7-.88-.85-.41-1.7-.85-2.44-1.46Z"/>
        <path class="cls-2" d="m363.38,233.97c.7.33,1.37.64,2.09.88.7.28,1.42.47,2.15.76-.78.02-1.54-.16-2.28-.41-.72-.29-1.43-.65-1.96-1.23Z"/>
        <path class="cls-2" d="m362.08,235.21c.76.28,1.47.63,2.21.93.72.34,1.46.62,2.18,1-.81-.09-1.58-.36-2.33-.66-.73-.34-1.46-.72-2.06-1.27Z"/>
        <path class="cls-2" d="m364.12,240.68c.7.47,1.38.93,2.11,1.32.71.42,1.46.76,2.2,1.18-.84-.13-1.63-.46-2.38-.85-.73-.43-1.43-.94-1.93-1.64Z"/>
        <path class="cls-2" d="m366.64,240.51c.57.29,1.09.57,1.66.8.55.26,1.13.45,1.7.74-.64.01-1.26-.17-1.85-.41-.57-.27-1.14-.61-1.51-1.14Z"/>
        <path class="cls-2" d="m368.99,239.59c1.17.73,2.33,1.44,3.55,2.06,1.2.65,2.45,1.2,3.69,1.81-1.35-.32-2.63-.86-3.86-1.48-1.21-.66-2.39-1.41-3.38-2.39Z"/>
        <path class="cls-2" d="m372.98,240.14c.68.31,1.32.65,1.99.94.65.33,1.33.59,1.98.96-.75-.07-1.46-.33-2.14-.62-.66-.33-1.32-.72-1.83-1.28Z"/>
        <path class="cls-2" d="m379.49,244.78c.88.31,1.73.65,2.61.92.87.31,1.76.54,2.64.86-.94-.02-1.86-.23-2.76-.51-.88-.31-1.76-.69-2.5-1.27Z"/>
        <path class="cls-2" d="m381.45,242.88c.84.38,1.64.76,2.49,1.07.83.35,1.69.61,2.54.96-.92-.05-1.81-.3-2.68-.61-.85-.35-1.68-.78-2.36-1.41Z"/>
        <path class="cls-2" d="m384.46,242.63c.4-.04.75.06,1.11.15.35.13.7.25,1,.5-.4.04-.75-.06-1.11-.15-.35-.13-.7-.25-1-.5Z"/>
        <path class="cls-2" d="m288.51,307.48c-1.49-.13-2.96-.5-4.37-.99-1.4-.54-2.77-1.21-3.92-2.18,1.31.71,2.65,1.34,4.04,1.83,1.38.53,2.81.91,4.24,1.34Z"/>
        <path class="cls-2" d="m279.6,310.21c-1.27-.05-2.52-.3-3.76-.6-.61-.17-1.22-.35-1.82-.57-.3-.12-.59-.22-.89-.36-.14-.08-.29-.17-.4-.31-.05-.07-.09-.16-.07-.25.03-.09.09-.14.16-.19-.12.11-.14.28-.02.37.11.1.25.16.39.2.29.09.6.17.9.26.61.16,1.21.34,1.82.48,1.21.34,2.44.6,3.66.95Z"/>
        <path class="cls-2" d="m304.37,302.39c-1.7.09-3.41-.08-5.09-.4-1.66-.36-3.32-.88-4.79-1.75,1.59.59,3.21,1.07,4.87,1.39,1.65.36,3.33.55,5.01.77Z"/>
        <path class="cls-2" d="m313.41,299.72c-2.04-.17-4.05-.62-6-1.25-1.93-.66-3.84-1.51-5.49-2.72,1.81.95,3.67,1.75,5.6,2.37,1.92.66,3.9,1.13,5.88,1.6Z"/>
        <path class="cls-2" d="m319.04,297.83c-1.12,0-2.23-.24-3.29-.64-1.03-.44-2.05-1.07-2.65-2.03.83.75,1.77,1.29,2.79,1.69,1.01.43,2.07.69,3.15.99Z"/>
        <path class="cls-2" d="m329.63,294.17c-1.35-.17-2.66-.61-3.9-1.21-1.21-.63-2.37-1.46-3.14-2.59,1,.92,2.1,1.67,3.31,2.26,1.19.62,2.45,1.07,3.73,1.54Z"/>
        <path class="cls-2" d="m337.11,291.44c-.67.12-1.37.03-2.02-.2-.32-.14-.63-.3-.89-.53-.26-.24-.47-.54-.53-.88.4.54.96.85,1.56,1.07.59.25,1.23.36,1.89.55Z"/>
        <path class="cls-2" d="m255.21,320.7c.61-1.22,1.58-2.23,2.63-3.1,1.07-.84,2.24-1.57,3.51-2.06-1.12.77-2.25,1.49-3.28,2.35-1.05.83-2,1.77-2.86,2.81Z"/>
        <path class="cls-2" d="m270.41,316.46c.38-.88,1-1.64,1.66-2.33.69-.67,1.43-1.28,2.28-1.73-.66.69-1.37,1.31-2.02,1.99-.68.65-1.28,1.36-1.92,2.07Z"/>
        <path class="cls-2" d="m281.27,312.69c0,.11.01.21,0,.32l-.08-.04c.51-.6.77-1.33,1.3-1.98.54-.62,1.31-1.07,2.11-1.12-.73.33-1.36.77-1.83,1.36-.47.56-.83,1.35-1.52,1.81l-.11.07.03-.12c.03-.1.05-.2.09-.31Z"/>
        <path class="cls-2" d="m292.85,312.31c.28-1.48,1.1-2.81,2.05-3.96.99-1.13,2.14-2.12,3.43-2.87-1.11,1-2.21,1.98-3.14,3.11-.97,1.11-1.76,2.35-2.33,3.72Z"/>
        <path class="cls-2" d="m305.02,308.3c.3-1.38.94-2.67,1.69-3.86.79-1.17,1.7-2.27,2.77-3.18-.85,1.12-1.72,2.21-2.46,3.38-.78,1.15-1.42,2.38-2,3.66Z"/>
        <path class="cls-2" d="m323.17,301.97c1.05-1.64,2.38-3.08,3.79-4.43,1.44-1.31,2.96-2.53,4.63-3.54-1.48,1.26-2.98,2.48-4.38,3.81-1.43,1.3-2.75,2.71-4.04,4.16Z"/>
        <path class="cls-2" d="m332.39,298.38c.84-1.76,2.11-3.28,3.5-4.64,1.42-1.33,2.98-2.52,4.68-3.45-1.53,1.19-3.05,2.38-4.42,3.72-1.4,1.31-2.65,2.77-3.76,4.37Z"/>
        <path class="cls-2" d="m314.67,305.27c1.06-1.81,2.38-3.46,3.77-5.02,1.43-1.53,2.95-2.99,4.62-4.26-1.47,1.5-2.96,2.95-4.35,4.51-1.42,1.52-2.74,3.14-4.05,4.77Z"/>
        <path class="cls-2" d="m292.07,236.33c2.34-.59,4.73-.91,7.14-1.1,2.41-.15,4.83-.17,7.22.1-2.41.03-4.8.08-7.19.26-2.39.15-4.77.44-7.16.73Z"/>
        <path class="cls-2" d="m290.71,233.98c1.44-.42,2.92-.65,4.4-.87.74-.08,1.49-.17,2.23-.22l1.12-.06c.19,0,.37-.01.57,0,.1.01.2.02.29.09.11.09-.01.23-.1.22.1-.02.15-.13.07-.17-.07-.04-.17-.04-.25-.03-.18.01-.36.05-.55.08l-1.11.16-2.22.31c-1.48.17-2.95.39-4.45.5Z"/>
        <path class="cls-2" d="m291.75,232.21c.65-.28,1.35-.42,2.04-.58.7-.11,1.39-.23,2.11-.21-.67.28-1.35.42-2.04.58-.69.11-1.38.23-2.11.21Z"/>
        <path class="cls-2" d="m280.98,227.46c1.41-.41,2.87-.61,4.33-.76,1.46-.1,2.93-.16,4.39,0-1.46.14-2.91.21-4.36.36-1.45.1-2.89.28-4.36.39Z"/>
        <path class="cls-2" d="m311.12,247.28c1.52-.32,3.05-.6,4.59-.82,1.54-.23,3.08-.39,4.63-.55,1.55-.12,3.1-.23,4.65-.28,1.55-.05,3.11-.05,4.66,0l-4.65.28c-1.55.11-3.09.21-4.63.37-1.54.12-3.09.29-4.63.46l-4.62.54Z"/>
        <path class="cls-2" d="m310.63,244.2c1.91-.45,3.85-.71,5.79-.94,1.95-.18,3.9-.32,5.86-.26-1.94.25-3.89.41-5.82.63-1.94.18-3.88.42-5.83.57Z"/>
        <path class="cls-2" d="m306.21,242.27c1.66-.55,3.37-.87,5.1-1.13,1.73-.21,3.47-.35,5.21-.25-1.73.21-3.45.37-5.16.62-1.72.21-3.42.51-5.15.76Z"/>
        <path class="cls-2" d="m308.96,239.63c-.05.09.08.08.14.08.08,0,.16-.01.23-.03.14-.03.3-.08.46-.13.31-.09.63-.15.95-.22.64-.1,1.28-.21,1.95-.17-.61.27-1.25.4-1.88.54-.32.04-.64.11-.97.14-.16,0-.32.04-.5.03-.09,0-.17-.03-.26-.05-.04-.01-.08-.03-.12-.06-.05-.02-.05-.11,0-.12Z"/>
        <path class="cls-2" d="m328.15,252.43c2.34-.82,4.78-1.32,7.23-1.67,2.46-.3,4.95-.44,7.42-.25-2.47.12-4.93.28-7.37.61-2.45.3-4.86.77-7.28,1.3Z"/>
        <path class="cls-2" d="m332.6,250.3c.99-.32,1.99-.5,3-.7,1.01-.15,2.03-.31,3.06-.33-.99.32-1.99.5-3,.7-1.01.15-2.03.31-3.06.33Z"/>
        <path class="cls-2" d="m331.96,248.88c.53-.26,1.1-.39,1.67-.53.57-.1,1.15-.2,1.74-.17-.54.27-1.11.39-1.67.53-.57.09-1.13.2-1.74.17Z"/>
        <path class="cls-2" d="m338.6,254.65c1.69-.62,3.47-.98,5.25-1.24,1.79-.22,3.59-.34,5.39-.19-1.79.16-3.57.3-5.34.55-1.77.22-3.53.55-5.3.87Z"/>
        <path class="cls-2" d="m293.44,228.61c-.89-.64-1.53-1.65-1.73-2.76-.18-1.12.13-2.29.8-3.16-.39,1.01-.63,2.07-.43,3.1.15,1.04.7,1.96,1.37,2.82Z"/>
        <path class="cls-2" d="m286.23,223.84c-.32-.3-.53-.72-.61-1.17-.08-.45,0-.92.15-1.35.36-.84,1.02-1.5,1.79-1.89-.58.64-1.16,1.26-1.45,2.03-.33.75-.28,1.6.11,2.38Z"/>
        <path class="cls-2" d="m300.57,232.1c-.46-.27-.84-.72-1-1.27-.16-.55-.09-1.13.08-1.66.39-1.04,1.06-1.9,1.8-2.66-.5.95-1.14,1.81-1.45,2.78-.18.47-.24.98-.15,1.47.08.49.36.95.72,1.34Z"/>
        <path class="cls-2" d="m305.36,234.16c-.38-.32-.67-.77-.8-1.27-.14-.5-.1-1.04.04-1.54.34-.99,1.07-1.77,1.93-2.26-.67.72-1.31,1.47-1.58,2.37-.31.88-.14,1.86.41,2.7Z"/>
        <path class="cls-2" d="m317.85,239.59c-.69-.57-1.34-1.23-1.63-2.15-.12-.46-.1-.98.11-1.41.2-.43.54-.77.93-.99-.29.34-.54.7-.67,1.1-.13.39-.14.81-.02,1.21.21.81.82,1.49,1.28,2.25Z"/>
        <path class="cls-2" d="m326.49,243.53c-.46-1.07-.49-2.31-.25-3.45.27-1.14.8-2.22,1.56-3.1-.5,1.04-.97,2.07-1.2,3.18-.27,1.09-.27,2.23-.11,3.37Z"/>
        <path class="cls-2" d="m341.23,249.47c-.78-.73-1.24-1.81-1.27-2.9,0-1.1.39-2.18,1.09-2.98-.43.97-.76,1.96-.72,2.98,0,1.02.37,2,.9,2.91Z"/>
        <path class="cls-2" d="m346.49,251.81c-.38-.36-.59-.86-.72-1.36-.08-.51-.09-1.05.14-1.53.08.51.11.99.22,1.46.08.48.24.93.35,1.44Z"/>
        <path class="cls-2" d="m314,237.94c-.61-.54-.93-1.39-.91-2.23.05-.84.42-1.64,1.01-2.19-.33.73-.62,1.45-.64,2.21-.06.76.18,1.49.54,2.21Z"/>
        <path class="cls-2" d="m439.26,299.26c-1.54,2.3-3.18,4.52-4.79,6.78l-4.99,6.63c-3.35,4.41-6.84,8.7-10.39,12.95-3.57,4.23-7.22,8.4-11.06,12.39-1.91,2.01-3.89,3.95-5.88,5.88l-3.09,2.78c-1.06.89-2.15,1.76-3.23,2.61l2.98-2.88,2.87-2.99c1.88-2.02,3.77-4.03,5.58-6.11,3.64-4.14,7.26-8.31,10.79-12.55,3.57-4.21,7.08-8.48,10.61-12.72l5.28-6.39,5.32-6.37Z"/>
        <path class="cls-2" d="m416.75,327.07c-.85.41-1.76.68-2.68.86-.93.16-1.88.23-2.81.08,1.88-.06,3.68-.45,5.49-.94Z"/>
        <path class="cls-2" d="m413.12,331.3c-.7.38-1.45.64-2.2.87-.38.1-.77.2-1.16.27-.2.03-.39.07-.59.09-.1,0-.21,0-.31-.04-.11-.03-.16-.17-.11-.26-.05.25.25.23.41.18.18-.04.38-.1.57-.15l1.13-.32,2.27-.65Z"/>
        <path class="cls-2" d="m423.12,319.42c-.88.59-1.84,1.04-2.84,1.4-1,.33-2.05.57-3.11.57,2.08-.35,4.03-1.1,5.95-1.97Z"/>
        <path class="cls-2" d="m426.83,315.18c-1.15.56-2.38.95-3.63,1.24-1.26.26-2.55.4-3.83.28,2.56-.12,5.03-.73,7.46-1.52Z"/>
        <path class="cls-2" d="m429.07,312.42c-.61.36-1.29.58-1.99.7-.7.09-1.45.07-2.09-.24,1.39.26,2.74-.07,4.09-.46Z"/>
        <path class="cls-2" d="m433.23,307.18c-.8.34-1.65.52-2.52.59-.86.04-1.76-.03-2.56-.38,1.69.35,3.39.12,5.08-.21Z"/>
        <path class="cls-2" d="m436.1,303.4c-.32.28-.73.45-1.16.54-.42.06-.92.02-1.23-.3.4.15.8.15,1.2.08.4-.05.79-.19,1.2-.31Z"/>
        <path class="cls-2" d="m404.32,344.46c-.14-.81,0-1.65.22-2.43.25-.78.59-1.54,1.06-2.2-.63,1.5-1.19,3.01-1.28,4.64Z"/>
        <path class="cls-2" d="m410.66,337.46c-.12-.57-.09-1.16,0-1.73.11-.57.27-1.13.54-1.64-.22,1.13-.44,2.22-.54,3.37Z"/>
        <path class="cls-2" d="m414.91,332.08l.12.16h-.05c.04-.46-.09-.91-.05-1.42.05-.5.28-.99.68-1.27-.26.4-.43.84-.45,1.29-.04.44.07.96-.11,1.42l-.03.08-.02-.07-.07-.19Z"/>
        <path class="cls-2" d="m420.8,328.24c-.39-.83-.47-1.78-.4-2.68.09-.91.32-1.81.72-2.62-.45,1.75-.75,3.54-.31,5.31Z"/>
        <path class="cls-2" d="m425.66,322.32c-.35-.79-.5-1.66-.55-2.53-.03-.87.04-1.74.26-2.57-.09,1.72-.08,3.41.29,5.1Z"/>
        <path class="cls-2" d="m432.75,313.3c-.06-1.17.09-2.35.33-3.49.26-1.14.6-2.27,1.09-3.33-.65,2.25-1.19,4.5-1.42,6.83Z"/>
        <path class="cls-2" d="m436.22,308.52c-.21-1.16-.12-2.35.1-3.5.24-1.15.62-2.27,1.16-3.31-.74,2.21-1.32,4.47-1.26,6.81Z"/>
        <path class="cls-2" d="m429.55,317.7c-.12-1.26-.05-2.54.1-3.8.17-1.26.42-2.51.82-3.71-.46,2.49-.81,4.98-.92,7.51Z"/>
        <path class="cls-2" d="m417.67,282.45c.92.7,1.53,1.52,2.05,2.37.51.85.88,1.74,1.17,2.64.56,1.8.76,3.65.64,5.45-.34-1.76-.99-3.43-1.89-4.88-.45-.72-.97-1.39-1.55-1.95-.57-.56-1.23-1.04-1.83-1.27l1.42-2.35Z"/>
        <path class="cls-2" d="m409.97,311.17c.65-.51,1.32-.92,1.96-1.4.67-.44,1.29-.93,2.01-1.34-.47.69-1.1,1.22-1.75,1.71-.68.45-1.41.86-2.22,1.03Z"/>
        <path class="cls-2" d="m411.48,305.89c.66-.45,1.35-.77,2.03-1.14.7-.32,1.38-.69,2.14-.93-.57.57-1.25.96-1.94,1.33-.71.33-1.44.64-2.23.74Z"/>
        <path class="cls-2" d="m412.59,300.76c.57.18,1.07.34,1.62.38.54.09,1.08.04,1.68.06-.5.34-1.12.43-1.73.38-.59-.09-1.2-.33-1.57-.82Z"/>
        <path class="cls-2" d="m413.19,297.58c.01-.18.12-.35.27-.47.16-.11.36-.16.56-.17.37.01.68.08,1.03.12.66.14,1.33.27,1.97.56-.7.07-1.37-.03-2.04-.12-.32-.07-.68-.14-.98-.22-.28-.06-.6,0-.8.3Z"/>
        <path class="cls-2" d="m414.12,292.98c.57-.19,1.18-.1,1.75.09.55.23,1.06.58,1.35,1.11-.54-.25-1-.52-1.51-.69-.5-.22-1.02-.32-1.59-.51Z"/>
        <path class="cls-2" d="m414.42,288.5c.43.15.75.37,1.12.55.34.22.69.39,1.04.68-.46.06-.88-.1-1.26-.29-.36-.24-.71-.52-.89-.94Z"/>
        <path class="cls-2" d="m401.51,283.76c1.26-.15,2.51-.08,3.77.03,1.25.16,2.49.36,3.69.78-1.26-.05-2.49-.22-3.73-.33-1.24-.16-2.47-.25-3.72-.48Z"/>
        <path class="cls-2" d="m401.67,287.38c1.08-.26,2.21-.26,3.31-.15,1.1.16,2.2.42,3.18.95-1.1-.18-2.15-.4-3.23-.51-1.07-.16-2.15-.19-3.26-.3Z"/>
        <path class="cls-2" d="m404.14,291.7c.61-.41,1.31-.62,2.01-.79.71-.12,1.44-.19,2.16-.03-.7.21-1.39.31-2.07.47-.69.11-1.37.29-2.1.35Z"/>
        <path class="cls-2" d="m405.13,295.14c.4-.27.88-.32,1.35-.29.46.08.93.25,1.22.64-.47-.06-.86-.16-1.28-.19-.41-.08-.82-.06-1.29-.15Z"/>
        <path class="cls-2" d="m391.31,286.83c.95-.67,2.01-1.13,3.09-1.53,1.1-.35,2.23-.64,3.39-.65-1.09.39-2.18.69-3.24,1.08-1.08.34-2.13.77-3.24,1.1Z"/>
        <path class="cls-2" d="m375.24,293.91c1.24-1.42,2.77-2.58,4.45-3.46,1.69-.83,3.61-1.39,5.5-1.16-1.87.15-3.65.71-5.29,1.56-1.66.81-3.17,1.91-4.66,3.06Z"/>
        <path class="cls-2" d="m380.35,294.59c.68-.68,1.53-1.15,2.42-1.5.9-.31,1.88-.5,2.83-.32-.93.19-1.82.4-2.68.74-.88.29-1.7.71-2.58,1.08Z"/>
        <path class="cls-2" d="m382.46,297.33c.28-.49.74-.82,1.23-1.06.51-.2,1.11-.33,1.63-.09-.53.15-.99.28-1.45.5-.47.18-.9.45-1.42.65Z"/>
        <path class="cls-2" d="m365.55,301.46c.98-1.08,2.16-1.96,3.4-2.73,1.26-.73,2.6-1.36,4.04-1.64-1.31.63-2.59,1.26-3.81,2.02-1.24.72-2.41,1.55-3.63,2.35Z"/>
        <path class="cls-2" d="m366.13,303.33c.65-.73,1.46-1.27,2.29-1.76.86-.44,1.76-.84,2.73-.96-.85.48-1.69.88-2.51,1.36-.84.43-1.64.94-2.51,1.37Z"/>
        <path class="cls-2" d="m360.23,307.4c.48-.69,1.14-1.22,1.82-1.69.71-.43,1.47-.82,2.3-.93-.69.47-1.39.85-2.06,1.31-.69.42-1.33.9-2.06,1.31Z"/>
        <path class="cls-2" d="m359.03,310.76c.53-.56,1.17-.95,1.81-1.33.67-.33,1.35-.66,2.11-.79-.6.47-1.26.81-1.89,1.18-.66.33-1.3.69-2.02.94Z"/>
        <path class="cls-2" d="m358.04,314.75c.86-.37,1.71-.66,2.54-1.03.85-.32,1.66-.73,2.54-1.04-.69.64-1.52,1.08-2.37,1.46-.87.33-1.77.61-2.71.61Z"/>
        <path class="cls-2" d="m358.34,317.85c.67-.12,1.29-.18,1.92-.33.63-.1,1.24-.3,1.92-.4-.52.44-1.17.68-1.83.84-.66.11-1.37.14-2.01-.11Z"/>
        <path class="cls-2" d="m359.1,320.95c.79.22,1.55.29,2.31.18.77-.07,1.5-.33,2.29-.55-.61.56-1.41.87-2.24,1-.83.08-1.74-.07-2.36-.63Z"/>
        <path class="cls-2" d="m360.37,323.73c.42-.04.75-.02,1.11-.07.36,0,.7-.08,1.13-.06-.28.32-.69.45-1.09.51-.41,0-.85-.06-1.15-.37Z"/>
        <path class="cls-2" d="m366.11,306.7c.62-.6,1.4-.99,2.2-1.3.82-.26,1.69-.43,2.54-.26-.83.21-1.62.4-2.4.69-.79.24-1.53.6-2.35.87Z"/>
        <path class="cls-2" d="m364.92,318.27c.96-.34,1.91-.58,2.86-.88.96-.26,1.89-.59,2.88-.8-.85.56-1.8.92-2.76,1.23-.97.26-1.97.48-2.99.45Z"/>
        <path class="cls-2" d="m365.25,321.65c.8-.2,1.55-.4,2.28-.72.74-.27,1.43-.66,2.2-.98-.55.63-1.27,1.06-2.03,1.4-.77.29-1.62.48-2.45.3Z"/>
        <path class="cls-2" d="m365.42,324.04c.81-.3,1.62-.5,2.41-.78.81-.23,1.58-.54,2.43-.74-.68.54-1.48.88-2.29,1.17-.83.24-1.68.42-2.55.35Z"/>
        <path class="cls-2" d="m371.7,328.2c.92-.05,1.79-.1,2.66-.27.88-.13,1.72-.38,2.62-.57-.76.53-1.64.83-2.55,1.01-.91.13-1.87.15-2.74-.17Z"/>
        <path class="cls-2" d="m373.35,325.97c.67-.14,1.29-.25,1.9-.46.62-.17,1.21-.44,1.87-.62-.47.51-1.09.83-1.74,1.05-.66.18-1.38.27-2.03.03Z"/>
        <path class="cls-2" d="m374.22,323.08c1.47-.16,2.92-.33,4.34-.66,1.43-.28,2.83-.72,4.26-1.11-1.29.74-2.71,1.21-4.16,1.55-1.46.29-2.96.43-4.43.22Z"/>
        <path class="cls-2" d="m377.56,320.43c.78-.21,1.52-.35,2.26-.58.75-.18,1.47-.45,2.26-.63-.62.51-1.37.82-2.14,1.06-.77.19-1.59.31-2.38.15Z"/>
        <path class="cls-2" d="m386.31,320.07c.93-.36,1.83-.68,2.69-1.11.89-.38,1.72-.86,2.63-1.27-.69.72-1.55,1.24-2.44,1.68-.91.39-1.88.7-2.88.7Z"/>
        <path class="cls-2" d="m386.03,316.46c.94-.26,1.85-.5,2.73-.85.9-.31,1.74-.73,2.66-1.09-.72.67-1.59,1.14-2.5,1.51-.92.32-1.91.55-2.89.43Z"/>
        <path class="cls-2" d="m387.97,313.74c.27-.34.61-.52.94-.72.36-.15.71-.31,1.14-.31-.26.34-.61.52-.94.72-.36.15-.71.31-1.14.31Z"/>
      </g>
    </g>
  </g>
</svg>